<?xml version="1.0" encoding="utf-8"?><svg width="161" height="121" viewBox="0 0 161 121" xmlns="http://www.w3.org/2000/svg" xmlns:xlink="http://www.w3.org/1999/xlink"><svg width="40" height="40" viewBox="0 0 40 40" id="btn_arrow" y="80.14999999999999" xmlns="http://www.w3.org/2000/svg"><path d="M20 0a20 20 0 1020 20A20 20 0 0020 0zm8.48 23.77a1.51 1.51 0 01-1.06.44 1.49 1.49 0 01-1.06-.44L20 17.41l-6.36 6.36a1.49 1.49 0 01-2.12 0 1.51 1.51 0 010-2.12l7.42-7.42a1.5 1.5 0 012.12 0l7.42 7.42a1.51 1.51 0 010 2.12z" fill="#f1704d"/></svg><svg width="57.79" height="14.64" viewBox="0 0 57.79 14.64" id="nav1" x="97.52" y="49.61" xmlns="http://www.w3.org/2000/svg"><defs><style>.ba{fill:#f1704d}</style></defs><path class="ba" d="M0 0h2.62l6.15 9.45V0h2.73v14.37H8.87L2.73 4.94v9.43H0zm27.74 9.82h-8.57a2.93 2.93 0 001 1.81 3.16 3.16 0 002.06.66 3.54 3.54 0 002.57-1L27 12.3a5.27 5.27 0 01-2 1.77 6.3 6.3 0 01-2.78.57 5.49 5.49 0 01-4.07-1.58 5.37 5.37 0 01-1.58-4 5.58 5.58 0 011.57-4 5.28 5.28 0 013.93-1.6 5.43 5.43 0 014.08 1.6 5.81 5.81 0 011.58 4.25zm-2.67-2.1a2.68 2.68 0 00-1-1.44 3 3 0 00-1.81-.56 3.16 3.16 0 00-1.95.63 3.53 3.53 0 00-1 1.37zm6.25-3.98h2.61l2.13 6 2.3-6H40l2.26 6 2.14-6H47l-3.89 10.63h-1.69l-2.27-6.06-2.33 6.06h-1.67zm26.27 1.48l-1.65 1.66a2.75 2.75 0 00-1.82-1 1.1 1.1 0 00-.7.19.57.57 0 00-.26.47.57.57 0 00.16.4 3.05 3.05 0 00.8.49l1 .49a5.82 5.82 0 012.12 1.55 3 3 0 01.58 1.86 3.07 3.07 0 01-1 2.36 4 4 0 01-2.79 1 4.44 4.44 0 01-3.71-1.82L51.89 11a3.92 3.92 0 001.1.88 2.49 2.49 0 001.12.34A1.35 1.35 0 0055 12a.74.74 0 00.32-.58c0-.41-.39-.81-1.16-1.21l-.9-.44c-1.72-.87-2.58-1.95-2.58-3.26a2.85 2.85 0 011-2.15 3.52 3.52 0 012.49-.89 4.36 4.36 0 011.95.45 4.27 4.27 0 011.47 1.3z"/></svg><svg width="97.52" height="15.27" viewBox="0 0 97.52 15.27" id="nav2" y="49.61" xmlns="http://www.w3.org/2000/svg"><defs><style>.ca{fill:#f1704d}</style></defs><path class="ca" d="M0 .63h2.73v11.76h4V15H0zM12.15 0a1.64 1.64 0 011.2.51 1.71 1.71 0 01.5 1.23 1.66 1.66 0 01-.5 1.26 1.58 1.58 0 01-1.18.51A1.63 1.63 0 0111 2.94a1.71 1.71 0 01-.5-1.24A1.64 1.64 0 0111 .5a1.64 1.64 0 011.15-.5zm-1.34 4.38h2.67V15h-2.67zm6.55 0h2.72l2.68 6.26 2.68-6.26h2.7L23.62 15h-1.73zM43 10.46h-8.62a2.93 2.93 0 001 1.8 3.11 3.11 0 002.06.67 3.57 3.57 0 002.57-1l2.24 1.06a5.33 5.33 0 01-2 1.76 6.3 6.3 0 01-2.78.57 5.48 5.48 0 01-4.07-1.57 5.37 5.37 0 01-1.6-4 5.56 5.56 0 011.57-4A5.29 5.29 0 0137.3 4.1a5.44 5.44 0 014.08 1.61A5.79 5.79 0 0143 10zm-2.67-2.1a2.74 2.74 0 00-1-1.45 3 3 0 00-1.81-.55 3.22 3.22 0 00-2 .62 3.4 3.4 0 00-1 1.38zM56 .63h2.71V15H56zm8.1 3.75h2.66v1.08a6.34 6.34 0 011.65-1.06 3.94 3.94 0 011.5-.3 3.61 3.61 0 012.68 1.11A3.75 3.75 0 0173.52 8v7h-2.64v-4.65a11.42 11.42 0 00-.17-2.53 1.71 1.71 0 00-.59-1 1.65 1.65 0 00-1.05-.33 2 2 0 00-1.39.54 3 3 0 00-.8 1.5 11.78 11.78 0 00-.12 2.16V15H64.1zm13.33 0h.95c0-1.4 0-2.22.06-2.48a2.08 2.08 0 01.74-1.39A2.77 2.77 0 0181 0a5.65 5.65 0 011.88.38v2a3.59 3.59 0 00-1-.16 1 1 0 00-.68.19.83.83 0 00-.16.61v1.36h1.69v2.25H81V15h-2.62V6.63h-.95zm14.45-.28a5.63 5.63 0 012.83.75 5.61 5.61 0 010 9.69 5.65 5.65 0 01-2.85.73A5.32 5.32 0 0188 13.65a5.39 5.39 0 01-1.61-4 5.35 5.35 0 011.81-4.1 5.32 5.32 0 013.68-1.45zm.05 2.51a2.73 2.73 0 00-2.07.87A3.06 3.06 0 0089 9.69a3.09 3.09 0 00.82 2.24 2.7 2.7 0 002.07.86 2.75 2.75 0 002.11-.87 3.07 3.07 0 00.83-2.23A3.1 3.1 0 0094 7.47a2.77 2.77 0 00-2.07-.86z"/></svg><svg width="69.09" height="15.27" viewBox="0 0 69.09 15.27" id="nav3" y="64.88" xmlns="http://www.w3.org/2000/svg"><defs><style>.da{fill:#f1704d}</style></defs><path class="da" d="M0 .63h7.94v2.7H5.32V15H2.55V3.33H0zM13.16 0a1.61 1.61 0 011.2.51 1.68 1.68 0 01.51 1.23 1.66 1.66 0 01-.5 1.26 1.66 1.66 0 01-2.4 0 1.67 1.67 0 01-.5-1.24A1.63 1.63 0 0112 .5a1.64 1.64 0 011.16-.5zm-1.33 4.38h2.66V15h-2.66zm18.09 2.14L27.7 7.74a3.84 3.84 0 00-1.24-.9A3.69 3.69 0 0025 6.58a3.34 3.34 0 00-2.42.89 3 3 0 00-.93 2.29 3 3 0 00.92 2.24 3.22 3.22 0 002.34.86 3.4 3.4 0 002.79-1.22l2.1 1.44a5.74 5.74 0 01-4.8 2.19 5.76 5.76 0 01-4.39-1.66A5.42 5.42 0 0119 9.73a5.47 5.47 0 012.92-4.89A6.53 6.53 0 0125 4.1a6.29 6.29 0 012.85.63 5.47 5.47 0 012.07 1.79zM34.94.27h2.66v8.49l3.93-4.38h3.35L40.3 9.47 45.43 15h-3.31l-4.52-4.9V15h-2.66zm24.83 10.19H51.2a2.84 2.84 0 001 1.8 3.09 3.09 0 002.06.67 3.57 3.57 0 002.57-1l2.24 1.06a5.33 5.33 0 01-2 1.76 6.3 6.3 0 01-2.78.57 5.52 5.52 0 01-4.08-1.57 5.4 5.4 0 01-1.57-3.95 5.56 5.56 0 011.57-4 5.25 5.25 0 013.91-1.7 5.47 5.47 0 014.08 1.61A5.78 5.78 0 0159.77 10zm-2.67-2.1a2.74 2.74 0 00-1-1.45 3 3 0 00-1.81-.55 3.22 3.22 0 00-2 .62 3.4 3.4 0 00-1 1.38zm7.75-7.9h2.66v3.92h1.58v2.29h-1.58V15h-2.66V6.67h-1.37V4.38h1.37z"/></svg><svg width="127.57" height="15.36" viewBox="0 0 127.57 15.36" id="nav4" y="34.25" xmlns="http://www.w3.org/2000/svg"><defs><style>.ea{fill:#f1704d}</style></defs><path class="ea" d="M13.91 3L12 4.88A5.69 5.69 0 007.72 3a4.86 4.86 0 00-3.55 1.36 4.57 4.57 0 00-1.44 3.41 4.74 4.74 0 001.49 3.53 5.06 5.06 0 003.67 1.44 4.48 4.48 0 002.39-.59 4.21 4.21 0 001.57-1.87H7.69V7.71h7.22v.61a7 7 0 01-1 3.57 6.89 6.89 0 01-2.53 2.58 7.26 7.26 0 01-3.65.89 8.07 8.07 0 01-4-1A7.16 7.16 0 011 11.62a7.73 7.73 0 01-1-3.88 7.24 7.24 0 011.88-5A7.47 7.47 0 017.71.27a8.72 8.72 0 013.5.7A8 8 0 0113.91 3zm10.83 1.1a5.68 5.68 0 012.83.75 5.51 5.51 0 012.8 4.83 5.65 5.65 0 01-.74 2.81 5.5 5.5 0 01-2 2 5.64 5.64 0 01-2.84.73 5.3 5.3 0 01-3.9-1.62 5.4 5.4 0 01-1.62-4 5.36 5.36 0 011.83-4.15 5.29 5.29 0 013.64-1.35zm0 2.51a2.73 2.73 0 00-2.07.87 3.05 3.05 0 00-.82 2.21 3.13 3.13 0 00.81 2.24 2.72 2.72 0 002.07.86 2.78 2.78 0 002.09-.87 3.11 3.11 0 00.83-2.23 3.06 3.06 0 00-.82-2.22 2.76 2.76 0 00-2.05-.86zm15.4-2.51a5.65 5.65 0 012.86.75 5.55 5.55 0 012.81 4.83 5.55 5.55 0 01-.81 2.81 5.5 5.5 0 01-2 2 5.61 5.61 0 01-2.84.73 5.32 5.32 0 01-3.9-1.62 5.4 5.4 0 01-1.62-4 5.36 5.36 0 011.83-4.15 5.3 5.3 0 013.67-1.35zm0 2.51a2.73 2.73 0 00-2.07.87 3.06 3.06 0 00-.83 2.21 3.09 3.09 0 00.82 2.24 2.7 2.7 0 002.07.86 2.75 2.75 0 002.08-.87 3.11 3.11 0 00.83-2.23 3.06 3.06 0 00-.82-2.22 2.75 2.75 0 00-2.03-.86zM58.4.27h2.66V15H58.4v-1.12A5.42 5.42 0 0156.83 15a4.51 4.51 0 01-1.7.32 4.74 4.74 0 01-3.56-1.59 5.59 5.59 0 01-1.5-4 5.72 5.72 0 011.45-4 4.65 4.65 0 013.53-1.63 4.44 4.44 0 011.79.36 5 5 0 011.56 1.09zm-2.81 6.29a2.66 2.66 0 00-2.05.88 3.13 3.13 0 00-.82 2.24 3.18 3.18 0 00.83 2.26 2.68 2.68 0 002.05.89 2.78 2.78 0 002.09-.83 3.2 3.2 0 00.82-2.29 3.1 3.1 0 00-.82-2.25 2.81 2.81 0 00-2.1-.9zm17.27-.7l-1.65 1.65a2.82 2.82 0 00-1.83-1 1.19 1.19 0 00-.7.19.58.58 0 00-.25.48.56.56 0 00.16.39 3.06 3.06 0 00.79.5l1 .48a5.71 5.71 0 012.12 1.56 3.23 3.23 0 01-.5 4.22 4 4 0 01-2.79.94 4.42 4.42 0 01-3.71-1.81l1.64-1.79a3.75 3.75 0 001.1.88 2.37 2.37 0 001.11.34 1.3 1.3 0 00.85-.25.74.74 0 00.33-.59q0-.62-1.17-1.2l-.89-.45c-1.72-.87-2.58-2-2.58-3.25a2.8 2.8 0 011-2.15 3.52 3.52 0 012.48-.9 4.36 4.36 0 013.5 1.76zM86.05.63h2.71V15h-2.71zm8.1 3.75h2.66v1.08a6.51 6.51 0 011.65-1.06 3.94 3.94 0 011.5-.3 3.61 3.61 0 012.68 1.11 3.75 3.75 0 01.93 2.79v7h-2.64v-4.65a11.42 11.42 0 00-.17-2.53 1.71 1.71 0 00-.59-1 1.65 1.65 0 00-1-.33 2 2 0 00-1.39.54 3 3 0 00-.8 1.5 11.78 11.78 0 00-.12 2.16V15h-2.71zm13.33 0h1c0-1.4 0-2.22.07-2.48a2 2 0 01.73-1.39A2.77 2.77 0 01111 0a5.65 5.65 0 011.88.38v2a3.59 3.59 0 00-1-.16 1 1 0 00-.68.19.83.83 0 00-.16.61v1.36h1.69v2.25h-1.69V15h-2.66V6.63h-1zm14.45-.28a5.63 5.63 0 012.83.75 5.58 5.58 0 012.06 7.64 5.47 5.47 0 01-2 2 5.65 5.65 0 01-2.85.73 5.32 5.32 0 01-3.9-1.62 5.43 5.43 0 01-1.61-4 5.38 5.38 0 011.82-4.15 5.32 5.32 0 013.65-1.35zm0 2.51a2.73 2.73 0 00-2.07.87 3.06 3.06 0 00-.83 2.21 3.14 3.14 0 00.82 2.24 2.7 2.7 0 002.07.86 2.75 2.75 0 002.08-.87 3.07 3.07 0 00.83-2.23 3.1 3.1 0 00-.81-2.22 2.77 2.77 0 00-2.02-.86z"/></svg><svg width="160.35" height="18.89" viewBox="0 0 160.35 18.89" id="nav5" xmlns="http://www.w3.org/2000/svg"><defs><style>.fa{fill:#f1704d}</style></defs><path class="fa" d="M13.91 3L12 4.88A5.69 5.69 0 007.72 3a4.86 4.86 0 00-3.55 1.36 4.57 4.57 0 00-1.44 3.41 4.74 4.74 0 001.49 3.53 5.06 5.06 0 003.67 1.44 4.48 4.48 0 002.39-.59 4.21 4.21 0 001.57-1.87H7.69V7.71h7.22v.61a7 7 0 01-1 3.57 6.89 6.89 0 01-2.53 2.58 7.26 7.26 0 01-3.65.89 8.07 8.07 0 01-4-1A7.16 7.16 0 011 11.62a7.73 7.73 0 01-1-3.88 7.24 7.24 0 011.88-5A7.47 7.47 0 017.71.27a8.72 8.72 0 013.5.7A8 8 0 0113.91 3zm10.83 1.1a5.68 5.68 0 012.83.75 5.51 5.51 0 012.8 4.83 5.65 5.65 0 01-.74 2.81 5.5 5.5 0 01-2 2 5.64 5.64 0 01-2.84.73 5.3 5.3 0 01-3.9-1.62 5.4 5.4 0 01-1.62-4 5.36 5.36 0 011.83-4.15 5.29 5.29 0 013.64-1.35zm0 2.51a2.75 2.75 0 00-2.07.87 3.05 3.05 0 00-.82 2.21 3.13 3.13 0 00.81 2.24 2.72 2.72 0 002.07.86 2.78 2.78 0 002.09-.87 3.11 3.11 0 00.83-2.23 3.06 3.06 0 00-.82-2.22 2.76 2.76 0 00-2.05-.86zm15.4-2.51a5.65 5.65 0 012.86.75 5.55 5.55 0 012.81 4.83 5.55 5.55 0 01-.81 2.81 5.5 5.5 0 01-2 2 5.61 5.61 0 01-2.84.73 5.32 5.32 0 01-3.9-1.62 5.4 5.4 0 01-1.62-4 5.36 5.36 0 011.83-4.15 5.3 5.3 0 013.67-1.35zm0 2.51a2.73 2.73 0 00-2.07.87 3.06 3.06 0 00-.83 2.21 3.09 3.09 0 00.82 2.24 2.7 2.7 0 002.07.86 2.75 2.75 0 002.08-.87 3.11 3.11 0 00.83-2.23 3.06 3.06 0 00-.82-2.22 2.75 2.75 0 00-2.03-.86zM58.4.27h2.66V15H58.4v-1.12A5.42 5.42 0 0156.83 15a4.51 4.51 0 01-1.7.32 4.74 4.74 0 01-3.56-1.59 5.59 5.59 0 01-1.5-4 5.72 5.72 0 011.45-4 4.66 4.66 0 013.53-1.63 4.44 4.44 0 011.79.36 5 5 0 011.56 1.09zm-2.81 6.29a2.66 2.66 0 00-2.05.88 3.13 3.13 0 00-.82 2.24 3.18 3.18 0 00.83 2.26 2.68 2.68 0 002.05.89 2.78 2.78 0 002.09-.83 3.2 3.2 0 00.82-2.29 3.1 3.1 0 00-.82-2.25 2.81 2.81 0 00-2.1-.9zm17.27-.7l-1.65 1.65a2.82 2.82 0 00-1.83-1 1.19 1.19 0 00-.7.19.58.58 0 00-.25.48.56.56 0 00.16.39 3.06 3.06 0 00.79.5l1 .48a5.71 5.71 0 012.12 1.56 3.23 3.23 0 01-.5 4.22 4 4 0 01-2.79.94 4.42 4.42 0 01-3.71-1.81l1.64-1.79a3.75 3.75 0 001.1.88 2.37 2.37 0 001.12.34 1.29 1.29 0 00.84-.25.74.74 0 00.33-.59q0-.62-1.17-1.2l-.89-.45c-1.72-.87-2.58-2-2.58-3.25a2.8 2.8 0 011-2.15 3.53 3.53 0 012.49-.9 4.36 4.36 0 013.49 1.76zM86.25.63H89v11.76h4V15h-6.75zM98.39 0a1.61 1.61 0 011.2.51 1.67 1.67 0 01.5 1.23A1.65 1.65 0 0199.6 3a1.66 1.66 0 01-2.4 0 1.67 1.67 0 01-.5-1.24A1.63 1.63 0 0197.19.5a1.64 1.64 0 011.2-.5zm-1.33 4.38h2.66V15h-2.66zm7.69 0h2.66v1.08a6.48 6.48 0 011.64-1.06 4 4 0 011.51-.3 3.63 3.63 0 012.68 1.11 3.75 3.75 0 01.93 2.79v7h-2.64v-4.65a11.42 11.42 0 00-.17-2.53 1.71 1.71 0 00-.59-1 1.65 1.65 0 00-1-.33 2 2 0 00-1.39.54 3 3 0 00-.8 1.5 11.78 11.78 0 00-.12 2.16V15h-2.66zM130 10.46h-8.56a2.84 2.84 0 001 1.8 3.09 3.09 0 002 .67 3.53 3.53 0 002.57-1l2.25 1.06a5.33 5.33 0 01-2 1.76 6.31 6.31 0 01-2.79.57 5.51 5.51 0 01-4.07-1.57 5.36 5.36 0 01-1.57-3.95 5.52 5.52 0 011.57-4 5.25 5.25 0 013.93-1.61 5.47 5.47 0 014.08 1.61A5.78 5.78 0 01130 10zm-2.66-2.1a2.75 2.75 0 00-1-1.45 3 3 0 00-1.8-.55 3.25 3.25 0 00-2 .62 3.5 3.5 0 00-1 1.38zm7.4-3.98h2.7v5.11a7.07 7.07 0 00.2 2.08 1.85 1.85 0 00.66.9 1.87 1.87 0 001.12.32 2 2 0 001.13-.31 1.92 1.92 0 00.69-.94 7.1 7.1 0 00.17-2V4.38h2.67v4.5a11.17 11.17 0 01-.44 3.81 4.12 4.12 0 01-1.59 1.91 4.78 4.78 0 01-2.65.67 4.72 4.72 0 01-2.83-.78 4.13 4.13 0 01-1.52-2.18 13.08 13.08 0 01-.31-3.51zm17.26 0v1.17a5 5 0 011.56-1.09 4.52 4.52 0 011.8-.36 4.65 4.65 0 013.53 1.57 5.73 5.73 0 011.46 4 5.55 5.55 0 01-1.51 4 4.74 4.74 0 01-3.56 1.59 4.6 4.6 0 01-1.71-.32 5.29 5.29 0 01-1.57-1.06v5h-2.65V4.38zm2.8 2.18a2.79 2.79 0 00-2.09.86 3.11 3.11 0 00-.83 2.25 3.21 3.21 0 00.83 2.29 2.76 2.76 0 002.09.87 2.69 2.69 0 002.06-.89 3.18 3.18 0 00.83-2.26 3.13 3.13 0 00-.82-2.24 2.69 2.69 0 00-2.07-.88z"/></svg><svg width="137.44" height="15.36" viewBox="0 0 137.44 15.36" id="nav6" y="18.89" xmlns="http://www.w3.org/2000/svg"><defs><style>.ga{fill:#f1704d}</style></defs><path class="ga" d="M7.5.27a7.14 7.14 0 015.24 2.21 7.36 7.36 0 012.19 5.38 7.26 7.26 0 01-2.16 5.32 7.13 7.13 0 01-5.26 2.18 7.1 7.1 0 01-5.37-2.24A7.4 7.4 0 010 7.81 7.43 7.43 0 011 4a7.35 7.35 0 012.74-2.72A7.39 7.39 0 017.5.27zM7.47 3a4.51 4.51 0 00-3.36 1.34 4.84 4.84 0 00-1.36 3.52 4.59 4.59 0 001.71 3.77 4.72 4.72 0 003.05 1.08 4.44 4.44 0 003.32-1.4 4.79 4.79 0 001.37-3.47 4.79 4.79 0 00-1.38-3.47A4.49 4.49 0 007.47 3zm11.08 1.38h.94c0-1.4 0-2.22.07-2.48A2 2 0 0120.3.51 2.75 2.75 0 0122.08 0 5.65 5.65 0 0124 .38v2a3.59 3.59 0 00-1-.13 1 1 0 00-.68.19.83.83 0 00-.16.61v1.33h1.69v2.25h-1.69V15h-2.67V6.63h-.94zm8.19 0h1c0-1.4 0-2.22.07-2.48A2 2 0 0128.5.51 2.75 2.75 0 0130.28 0a5.6 5.6 0 011.87.38v2a3.53 3.53 0 00-.94-.16 1 1 0 00-.69.19.88.88 0 00-.15.61v1.36h1.69v2.25h-1.7V15h-2.67V6.63h-1zM37.25 0a1.63 1.63 0 011.2.51A1.67 1.67 0 0139 1.74 1.65 1.65 0 0138.46 3a1.67 1.67 0 01-2.41 0 1.71 1.71 0 01-.5-1.24 1.64 1.64 0 01.5-1.2 1.64 1.64 0 011.2-.56zm-1.33 4.38h2.66V15h-2.66zM54 6.52l-2.22 1.22a3.81 3.81 0 00-1.23-.9 3.74 3.74 0 00-1.44-.26 3.37 3.37 0 00-2.42.89 3.07 3.07 0 00-.92 2.29 3 3 0 00.89 2.24 3.19 3.19 0 002.34.86 3.36 3.36 0 002.78-1.22l2.11 1.44a5.74 5.74 0 01-4.83 2.22 5.77 5.77 0 01-4.39-1.66 5.56 5.56 0 01-.81-6.73 5.49 5.49 0 012.15-2 6.47 6.47 0 013.09-.81 6.24 6.24 0 012.84.63A5.4 5.4 0 0154 6.52zM60.05 0a1.64 1.64 0 011.2.51 1.71 1.71 0 01.5 1.23 1.66 1.66 0 01-.5 1.26 1.58 1.58 0 01-1.18.51 1.63 1.63 0 01-1.22-.52 1.71 1.71 0 01-.5-1.24 1.64 1.64 0 01.5-1.2 1.64 1.64 0 011.2-.55zm-1.34 4.38h2.67V15h-2.67zm15.53 0h2.67V15h-2.67v-1.12A5.38 5.38 0 0172.68 15a4.56 4.56 0 01-1.71.32 4.75 4.75 0 01-3.56-1.59 5.59 5.59 0 01-1.5-4 5.73 5.73 0 011.46-4A4.63 4.63 0 0170.9 4.1a4.51 4.51 0 011.79.36 4.87 4.87 0 011.55 1.09zm-2.8 2.18a2.66 2.66 0 00-2 .88 3.13 3.13 0 00-.82 2.24 3.18 3.18 0 00.83 2.26 2.68 2.68 0 002 .89 2.74 2.74 0 002.08-.83 3.21 3.21 0 00.83-2.29 3.11 3.11 0 00-.83-2.25 2.79 2.79 0 00-2.09-.9zM81.91.27h2.67V15h-2.67zm23.72 2.32l-2 1.79a2.87 2.87 0 00-2.17-1.49 1.33 1.33 0 00-.88.29.83.83 0 00-.34.65 1.11 1.11 0 00.24.68 18.25 18.25 0 002 1.85Q104 7.67 104.35 8a5.59 5.59 0 011.18 1.6 4.08 4.08 0 01.35 1.68 3.86 3.86 0 01-1.22 2.92 4.46 4.46 0 01-3.19 1.15 4.75 4.75 0 01-2.67-.75 5.93 5.93 0 01-2-2.36l2.3-1.39c.69 1.27 1.48 1.9 2.38 1.9a1.7 1.7 0 001.18-.41 1.18 1.18 0 00.48-.94 1.65 1.65 0 00-.36-1 10.15 10.15 0 00-1.59-1.49 15.89 15.89 0 01-3-3 3.71 3.71 0 01-.69-2.07 3.41 3.41 0 011.14-2.57 4 4 0 012.83-1 4.46 4.46 0 012 .5 7.47 7.47 0 012.16 1.82zm6.2-2.59a1.65 1.65 0 011.17.51 1.71 1.71 0 01.5 1.23A1.66 1.66 0 01113 3a1.59 1.59 0 01-1.19.51 1.62 1.62 0 01-1.21-.52 1.71 1.71 0 01-.5-1.24 1.64 1.64 0 01.5-1.2 1.63 1.63 0 011.23-.55zm-1.33 4.38h2.67V15h-2.67zm8.01-3.92h2.67v3.92h1.58v2.29h-1.58V15h-2.67V6.67h-1.37V4.38h1.37zm18.92 10h-8.56a2.84 2.84 0 001 1.8 3.07 3.07 0 002 .67 3.55 3.55 0 002.57-1l2.25 1.06a5.33 5.33 0 01-2 1.76 6.34 6.34 0 01-2.79.57 5.51 5.51 0 01-4.07-1.57 5.36 5.36 0 01-1.57-3.95 5.52 5.52 0 011.57-4 5.25 5.25 0 013.93-1.61 5.47 5.47 0 014.08 1.61 5.78 5.78 0 011.6 4.2zm-2.67-2.1a2.68 2.68 0 00-1-1.45 3 3 0 00-1.8-.55A3.23 3.23 0 00130 7a3.5 3.5 0 00-1 1.38z"/></svg></svg>