<svg xmlns="http://www.w3.org/2000/svg" width="478.74" height="398.25" viewBox="0 0 478.74 398.25"><path d="M53.61 253.7c-1-1.15-2-2.29-3-3.45C26.38 222.71 4.75 191.36.6 150.38a114 114 0 012.58-38.5c5-20.66 16.74-41.09 31.94-58.25C84.43-2 152.75-8.28 205.46 7.55c28.84 8.66 56.47 19.1 86.21 26.09 34.91 8.21 70.52 14.94 100.5 32.14 30.31 17.38 56.63 41.29 72.54 73.29 35.62 71.66 2.17 184.56-86.07 237.63a152.91 152.91 0 01-106.17 19c-50.08-9.36-92.25-40-131.82-66.48a460.35 460.35 0 01-87.04-75.52z" fill="#ea6d8d"/></svg>