<svg xmlns="http://www.w3.org/2000/svg" width="726.43" height="604.29" viewBox="0 0 726.43 604.29"><path d="M81.34 385q-2.32-2.59-4.62-5.22C40 337.94 7.21 290.36.91 228.18a172.8 172.8 0 013.92-58.42c7.61-31.34 25.4-62.34 48.46-88.38 74.83-84.46 178.49-93.95 258.47-69.93 43.76 13.14 85.68 29 130.81 39.6 53 12.45 107 22.66 152.5 48.76 46 26.38 85.93 62.65 110.06 111.21 54.06 108.73 3.3 280-130.59 360.57-52.47 31.55-111.49 38.1-161.1 28.83-76-14.2-140-60.72-200-100.86A698.36 698.36 0 0181.34 385z" fill="#fcd006"/></svg>