<svg xmlns="http://www.w3.org/2000/svg" width="677.32" height="562.22" viewBox="0 0 677.32 562.22"><path d="M606.17 366.64q2.1-2.37 4.18-4.77c33.12-38.25 62.47-82.05 66.56-140.36a165.83 165.83 0 00-5.36-55.07c-8-29.69-25.58-59.37-47.92-84.53C551.14.29 453.83-11.63 379.67 8.64c-40.58 11.1-79.36 24.78-121.29 33.45C209.16 52.28 158.87 60.31 117 83.54 74.76 107 38.43 140 17.24 185c-47.44 100.71 5 263.33 132.7 342.95C200 559.1 255.39 567 301.56 559.7c70.72-11.16 129.27-53.07 184.3-89.08a597.18 597.18 0 00120.31-103.98z" fill="#ea6d8d"/></svg>