<svg xmlns="http://www.w3.org/2000/svg" width="400.73" height="329.5" viewBox="0 0 400.73 329.5"><path d="M40.47 226.77c-.82-.88-1.63-1.78-2.43-2.67C18.83 202.65 1.92 177.72.13 143a103 103 0 013.78-33.18C9 91.71 19.72 73.19 33.23 57.17 77.07 5.19 134.86-6.16 178.58 2.75c23.92 4.88 46.75 11.39 71.5 14.76 29.06 4 58.76 6.58 83.29 18.67 24.8 12.22 46 30.36 58 56.35 27 58.2-5.86 157.78-82.37 211-30 20.83-62.91 27.95-90.19 25.59-41.78-3.6-76-26.14-108.23-45.31a309.65 309.65 0 01-70.11-57.04z" fill="#fcd006"/></svg>