<svg xmlns="http://www.w3.org/2000/svg" width="949.76" height="1339.75" viewBox="0 0 949.76 1339.75"><path d="M295.91 1095.59q3.82 5.37 7.71 10.7c61.8 85 133.66 166.4 233.71 209.53 30.08 13 62.34 21.54 95.65 23.52 52.24 3.1 105.63-11.55 151.83-37.89C934.7 1216 967.5 1041.85 941.86 891.26c-14-82.4-32.76-163-42.44-246.47-11.37-98-18.92-196.59-53.72-288.71-35.19-93.08-87.47-180.9-162.38-247.78C515.58-41.44 228.5-42.6 75.13 146.93 15 221.2-5.52 319.74 1.23 410.23 11.58 548.87 76.5 683.52 131.7 808a1634.85 1634.85 0 00164.21 287.59z" fill="#ea6d8d"/></svg>