<svg xmlns="http://www.w3.org/2000/svg" width="1249.84" height="1746.06" viewBox="0 0 1249.84 1746.06"><path d="M397.49 1432.49q5.08 6.94 10.24 13.86c82 110.11 177.11 215.3 308.45 270.1 39.48 16.47 81.75 27.18 125.29 29.26 68.27 3.26 137.78-16.69 197.73-51.8 194.47-113.89 234.66-341.85 198.87-538.15-19.58-107.41-45.28-212.43-59.2-321.28-16.34-127.77-27.7-256.49-74.56-376.26-47.38-121.1-117-235-215.88-321.16C667.07-56 292.09-53.1 94.66 196.79 17.29 294.71-8 423.73 2.15 541.82c15.63 180.92 102.48 355.8 176.48 517.58a2134.91 2134.91 0 00218.86 373.09z" fill="#fcd006"/></svg>