<svg xmlns="http://www.w3.org/2000/svg" width="493.99" height="410.03" viewBox="0 0 493.99 410.03"><path d="M442.15 267.49c1-1.15 2-2.32 3-3.48 24.15-27.89 45.54-59.83 48.51-102.36a120.92 120.92 0 00-3.94-40.16c-5.86-21.67-18.67-43.32-35-61.68C401.89.25 330.91-8.48 276.82 6.28c-29.59 8.08-57.87 18-88.45 24.36-35.9 7.41-72.57 13.25-103.07 30.18C54.47 77.94 28 102 12.55 134.77-22 208.21 16.31 326.84 109.45 385c36.5 22.77 76.93 28.54 110.6 23.24 51.58-8.11 94.26-38.66 134.39-64.91a434.91 434.91 0 0087.71-75.84z" fill="#fcd006"/></svg>