<svg xmlns="http://www.w3.org/2000/svg" width="354" height="109.4" viewBox="0 0 354 109.4"><defs><style>.a{fill:#4d4d4d}</style></defs><path class="a" d="M0 33.4h3.29v17.41H0zM8.06 37.93h3.23v1.32a7.53 7.53 0 012-1.29 4.8 4.8 0 011.82-.36 4.42 4.42 0 013.25 1.34 4.59 4.59 0 011.13 3.36v8.51h-3.2v-5.64a14 14 0 00-.21-3.06 1.94 1.94 0 00-2-1.55 2.37 2.37 0 00-1.68.66 3.44 3.44 0 00-1 1.81 14.11 14.11 0 00-.14 2.61v5.17h-3.2zM29.85 37.6a6.79 6.79 0 013.42.91 6.69 6.69 0 013.41 5.85 6.83 6.83 0 01-.91 3.41 6.61 6.61 0 01-2.47 2.48 6.86 6.86 0 01-3.44.89 6.44 6.44 0 01-4.73-2 6.78 6.78 0 014.72-11.54zm0 3a3.34 3.34 0 00-2.51 1 3.71 3.71 0 00-1 2.68 3.78 3.78 0 001 2.72 3.3 3.3 0 002.51 1 3.34 3.34 0 002.52-1.05 4.15 4.15 0 000-5.4 3.35 3.35 0 00-2.47-.91zM40.11 37.93h2.77v1.62a3.47 3.47 0 011.19-1.45 2.93 2.93 0 011.64-.5 3 3 0 011.31.33l-1 2.78a2.2 2.2 0 00-.94-.28 1.48 1.48 0 00-1.26.92 8.52 8.52 0 00-.51 3.65v5.84h-3.2zM51.4 32.63a2 2 0 011.45.61 2.05 2.05 0 01.61 1.5 2 2 0 01-.6 1.47 1.94 1.94 0 01-1.44.61A2 2 0 0150 36.2a2.08 2.08 0 01-.61-1.51 2 2 0 012.06-2.06zm-1.62 5.3H53v12.88h-3.22zM67.2 33.4h3.22l4 12.14 4.11-12.14h3.23l2.92 17.41h-3.2l-1.87-11-3.7 11H73l-3.67-11-1.91 11h-3.24zM89.87 32.63a2 2 0 011.46.61 2.05 2.05 0 01.61 1.5 2 2 0 01-.6 1.47 1.94 1.94 0 01-1.44.61 2 2 0 01-1.47-.62 2.08 2.08 0 01-.61-1.51 2 2 0 01.6-1.46 2 2 0 011.45-.6zm-1.61 5.3h3.23v12.88h-3.23zM95.86 37.93h3.23v1.32a7.86 7.86 0 012-1.29 4.89 4.89 0 011.83-.36 4.42 4.42 0 013.25 1.34 4.59 4.59 0 011.12 3.36v8.51h-3.19v-5.64a14 14 0 00-.21-3.06 2.08 2.08 0 00-.72-1.15 2 2 0 00-1.27-.4 2.37 2.37 0 00-1.68.66 3.44 3.44 0 00-1 1.81 13.79 13.79 0 00-.15 2.61v5.17h-3.21zM121.14 37.93h3.23v12.88h-3.23v-1.36a6.24 6.24 0 01-1.89 1.29 5.27 5.27 0 01-2.07.4 5.71 5.71 0 01-4.31-1.93 6.76 6.76 0 01-1.82-4.82 6.88 6.88 0 011.76-4.88 5.61 5.61 0 014.28-1.91 5.43 5.43 0 012.17.44 5.87 5.87 0 011.88 1.31zm-3.39 2.65a3.29 3.29 0 00-2.49 1.06 4.23 4.23 0 000 5.46 3.26 3.26 0 002.48 1.08 3.3 3.3 0 002.52-1.06 3.85 3.85 0 001-2.77 3.79 3.79 0 00-1-2.73 3.36 3.36 0 00-2.51-1.04zM136.8 39.73l-2 2a3.4 3.4 0 00-2.21-1.21 1.41 1.41 0 00-.85.23.7.7 0 00-.31.58.73.73 0 00.2.48 4 4 0 001 .6l1.18.59a6.84 6.84 0 012.57 1.88 3.91 3.91 0 01-.56 5.11 4.81 4.81 0 01-3.38 1.15 5.37 5.37 0 01-4.5-2.2l2-2.17a4.72 4.72 0 001.33 1.07 2.86 2.86 0 001.36.41 1.58 1.58 0 001-.31.88.88 0 00.39-.71c0-.49-.47-1-1.41-1.45l-1.09-.55c-2.08-1-3.12-2.36-3.12-3.94a3.43 3.43 0 011.18-2.61 4.26 4.26 0 013-1.08 5.21 5.21 0 012.36.55 5.27 5.27 0 011.86 1.58zM153.53 45.31h-10.38a3.43 3.43 0 001.21 2.18 3.77 3.77 0 002.49.81A4.3 4.3 0 00150 47l2.72 1.28a6.44 6.44 0 01-2.44 2.14 7.62 7.62 0 01-3.37.69 6.67 6.67 0 01-4.93-1.91 6.48 6.48 0 01-1.98-4.76 6.71 6.71 0 011.9-4.89 6.37 6.37 0 014.76-1.95 6.61 6.61 0 014.95 1.95 7 7 0 011.91 5.14zm-3.23-2.55A3.2 3.2 0 00149 41a3.67 3.67 0 00-2.19-.68 3.9 3.9 0 00-2.37.76 4.27 4.27 0 00-1.18 1.67zM165.71 33.4H169v14.25h4.83v3.16h-8.14zM177.23 33.4h3.29v17.41h-3.29zM184 33.4h3.41l4.38 12.37 4.45-12.37h3.4l-6.27 17.41h-3.2zM203.2 33.4h9.5v3.24h-6.21v3.15h6.21V43h-6.21v4.58h6.21v3.26h-9.5zM223.28 33.4h9.62v3.27h-3.17v14.14h-3.36V36.67h-3.09zM244.17 33a8.62 8.62 0 016.35 2.68 9.29 9.29 0 010 13 9.09 9.09 0 01-12.88-.07 9.15 9.15 0 011.94-14.35 8.88 8.88 0 014.59-1.26zm0 3.24a5.47 5.47 0 00-4.07 1.68 5.86 5.86 0 00-1.65 4.28 5.59 5.59 0 002.08 4.57 5.69 5.69 0 003.66 1.23 5.39 5.39 0 004-1.71 6.13 6.13 0 000-8.4 5.46 5.46 0 00-4.05-1.69zM257.36 33.4h3.32v11.26a5.84 5.84 0 00.26 2.06 2.05 2.05 0 00.84 1 2.64 2.64 0 001.41.36 2.72 2.72 0 001.51-.4 2.13 2.13 0 00.88-1 7.64 7.64 0 00.24-2.37V33.4h3.33v10.38a14.77 14.77 0 01-.3 3.64 5.15 5.15 0 01-1.13 2 5.28 5.28 0 01-1.92 1.4 6.43 6.43 0 01-2.54.46 6.1 6.1 0 01-3.29-.87 5 5 0 01-2-2.18 11.57 11.57 0 01-.6-4.42zM274.42 33.4h3.51a11.75 11.75 0 014.11.51 4.26 4.26 0 012 1.71 5.22 5.22 0 01.75 2.83 4.8 4.8 0 01-.82 2.87 5.06 5.06 0 01-2.48 1.75l4.12 7.74H282l-4-7.37h-.3v7.37h-3.31zm3.31 6.8h1a4.07 4.07 0 002.18-.41 1.58 1.58 0 00.59-1.38 1.64 1.64 0 00-1.08-1.6 6.15 6.15 0 00-1.82-.18h-.91zM299.7 39h-3.23a6.33 6.33 0 011.76-4.43 5.75 5.75 0 014.21-1.57 5.66 5.66 0 012.8.67 5.35 5.35 0 012.67 4.49 7.57 7.57 0 01-.88 3.34 18 18 0 01-3.23 4.22l-1.95 2.06h6.2v3.07H296v-1.63l5.39-5.49a15.9 15.9 0 002.6-3.18 4.65 4.65 0 00.64-2.17 2.22 2.22 0 00-.67-1.66 2.48 2.48 0 00-3.5.13 3.31 3.31 0 00-.76 2.15zM317.48 33a5.65 5.65 0 013.28.94 5.89 5.89 0 012.13 2.85 15.28 15.28 0 01.75 5.36 15.19 15.19 0 01-.76 5.4 6 6 0 01-2.06 2.83 5.47 5.47 0 01-3.25.91 5.77 5.77 0 01-3.3-.91 6.05 6.05 0 01-2.1-2.77 14.7 14.7 0 01-.75-5.29q0-4.8 1.47-7a5.28 5.28 0 014.59-2.32zm.07 3.15a2.28 2.28 0 00-1.49.54 3.5 3.5 0 00-1 1.85 16.25 16.25 0 00-.34 3.85 9.37 9.37 0 00.78 4.56 2.35 2.35 0 002 1.26 2.16 2.16 0 001.92-1.2 10 10 0 00.86-4.82 10.06 10.06 0 00-.78-4.74 2.27 2.27 0 00-1.95-1.34zM330.05 39h-3.23a6.38 6.38 0 011.77-4.43A5.75 5.75 0 01332.8 33a5.66 5.66 0 012.8.67 5.35 5.35 0 012.67 4.49 7.71 7.71 0 01-.88 3.34 18.28 18.28 0 01-3.23 4.22l-2 2.06h6.2v3.07h-12.01v-1.63l5.39-5.49a15.77 15.77 0 002.59-3.18 4.67 4.67 0 00.65-2.17 2.22 2.22 0 00-.67-1.66 2.48 2.48 0 00-3.5.13 3.37 3.37 0 00-.76 2.15zM347.83 33a5.68 5.68 0 013.29.94 5.89 5.89 0 012.13 2.85 15.28 15.28 0 01.75 5.36 15.19 15.19 0 01-.76 5.4 6.08 6.08 0 01-2.06 2.83 5.47 5.47 0 01-3.25.91 5.77 5.77 0 01-3.3-.91 6 6 0 01-2.1-2.77 14.67 14.67 0 01-.76-5.29c0-3.2.5-5.52 1.48-7a5.28 5.28 0 014.58-2.32zm.08 3.15a2.26 2.26 0 00-1.49.54 3.5 3.5 0 00-1 1.85 16.25 16.25 0 00-.34 3.85 9.37 9.37 0 00.78 4.56 2.35 2.35 0 002 1.26 2.14 2.14 0 001.91-1.2 9.84 9.84 0 00.87-4.82 10.06 10.06 0 00-.78-4.74 2.27 2.27 0 00-1.95-1.34zM103.66 3.23v7.84h-1V9.72a4.44 4.44 0 01-1.43 1.16 4 4 0 01-4.56-.82 4 4 0 01-1.17-2.93 4 4 0 011.19-2.9A3.87 3.87 0 0199.55 3a3.6 3.6 0 011.74.41 4 4 0 011.38 1.23V3.23zm-4 .77a3 3 0 00-2.69 1.57 3.22 3.22 0 001.15 4.35 2.94 2.94 0 001.53.42 3.13 3.13 0 001.57-.42 3 3 0 001.14-1.13 3.17 3.17 0 00.4-1.6 3.12 3.12 0 00-.9-2.28A2.94 2.94 0 0099.63 4zM106.72 3.23h1v1.4a4.06 4.06 0 011.34-1.2 3.25 3.25 0 011.6-.4 2.79 2.79 0 011.56.44 2.64 2.64 0 011 1.21 6.23 6.23 0 01.34 2.32v4h-1V7.33a9.64 9.64 0 00-.11-1.81 2 2 0 00-.68-1.17 2 2 0 00-1.29-.4 2.51 2.51 0 00-1.64.61 2.81 2.81 0 00-1 1.5 11 11 0 00-.14 2.13v2.88h-1zM116.94 0a.81.81 0 01.59.24.85.85 0 01.24.6.82.82 0 01-.83.82.8.8 0 01-.58-.24.8.8 0 01-.24-.58.85.85 0 01.24-.6.8.8 0 01.58-.24zm-.5 3.23h1v7.84h-1zM120.44 3.23h1v1.35a3.85 3.85 0 011.08-1.09 3.05 3.05 0 011.62-.49 2.72 2.72 0 011.09.22 2.35 2.35 0 01.83.59 3 3 0 01.56 1.07 3.79 3.79 0 011.26-1.41 3.08 3.08 0 011.63-.47 2.47 2.47 0 011.43.41 2.37 2.37 0 01.92 1.14 5.93 5.93 0 01.31 2.21v4.28h-1V6.79a5.66 5.66 0 00-.17-1.74 1.63 1.63 0 00-.62-.76 1.84 1.84 0 00-1-.28 2.22 2.22 0 00-1.33.43 2.48 2.48 0 00-.89 1.15A7.22 7.22 0 00126.8 8v3.07h-1v-4a6.69 6.69 0 00-.18-1.92 1.61 1.61 0 00-.61-.82 1.83 1.83 0 00-1-.3 2.24 2.24 0 00-1.3.42 2.53 2.53 0 00-.91 1.13 6.23 6.23 0 00-.29 2.18v3.33h-1zM141.68 8.47l.85.44a4.8 4.8 0 01-1 1.33 3.88 3.88 0 01-1.24.76 4.16 4.16 0 01-1.55.27 3.74 3.74 0 01-3-1.26 4.24 4.24 0 01-1.08-2.84 4.19 4.19 0 01.92-2.66A3.74 3.74 0 01138.73 3a3.86 3.86 0 013.2 1.52 4.26 4.26 0 01.86 2.68h-7a3.18 3.18 0 00.87 2.23 2.76 2.76 0 002.09.88 3.3 3.3 0 001.16-.21 3 3 0 001-.55 4.4 4.4 0 00.77-1.08zm0-2.12a3.35 3.35 0 00-.59-1.29 2.6 2.6 0 00-1-.77 3 3 0 00-1.33-.3 2.88 2.88 0 00-2 .74 3.33 3.33 0 00-.92 1.62zM145.31.2h1v10.87h-1zM153 3a3.85 3.85 0 013 1.31 4.08 4.08 0 011.09 2.83 4.1 4.1 0 01-1.17 2.86 4.14 4.14 0 01-5.92 0 4.09 4.09 0 01-1.14-2.87A4.09 4.09 0 01150 4.34 3.9 3.9 0 01153 3zm0 1a2.9 2.9 0 00-2.16.93 3.09 3.09 0 00-.91 2.25 3.21 3.21 0 00.41 1.58 3 3 0 002.66 1.55 3 3 0 001.54-.4 3 3 0 001.11-1.14 3.11 3.11 0 00.35-1.58 3.12 3.12 0 00-.9-2.25A2.93 2.93 0 00153 4zM164.49 3.23h1v1.35a3.75 3.75 0 011.09-1.09 3 3 0 011.6-.46 2.72 2.72 0 011.09.22 2.35 2.35 0 01.83.59 3.13 3.13 0 01.57 1.07 3.68 3.68 0 011.25-1.41 3.08 3.08 0 011.63-.5 2.47 2.47 0 011.43.41 2.37 2.37 0 01.92 1.14 5.93 5.93 0 01.31 2.21v4.28h-1V6.79a5.66 5.66 0 00-.21-1.74 1.63 1.63 0 00-.62-.76 1.83 1.83 0 00-1-.28 2.23 2.23 0 00-1.34.43 2.48 2.48 0 00-.89 1.15 7.22 7.22 0 00-.31 2.41v3.07h-1v-4a6.69 6.69 0 00-.18-1.92 1.61 1.61 0 00-.61-.82 1.83 1.83 0 00-1-.3 2.24 2.24 0 00-1.3.42 2.45 2.45 0 00-.9 1.13 6 6 0 00-.3 2.18v3.33h-1zM179.58 0a.82.82 0 01.59.24.85.85 0 01.24.6.8.8 0 01-.24.58.82.82 0 01-.59.24.78.78 0 01-.58-.24.77.77 0 01-.25-.58.82.82 0 01.25-.6.78.78 0 01.58-.24zm-.5 3.23h1v7.84h-1zM182.3 3.23h1.21l2.08 2.86 2.07-2.86h1.21l-2.67 3.7 3 4.14H188l-2.39-3.3-2.37 3.3H182l3-4.13zM195.85 3.23h1v1.44a4 4 0 011.37-1.23A3.6 3.6 0 01200 3a3.86 3.86 0 012.85 1.2A4 4 0 01204 7.13a4 4 0 01-1.18 2.93 3.94 3.94 0 01-4.55.82 4.3 4.3 0 01-1.42-1.16v4.21h-1zm4 .77a3 3 0 00-2.2.91 3.11 3.11 0 00-.89 2.28 3.27 3.27 0 00.39 1.6 2.91 2.91 0 001.15 1.13 3.13 3.13 0 001.57.42 2.93 2.93 0 001.52-.42 3.08 3.08 0 001.14-1.18 3.11 3.11 0 00.47-1.58 3.21 3.21 0 00-.42-1.59 3 3 0 00-2.7-1.57zM206.45 3.23h1v1.14a3.51 3.51 0 011-1 1.92 1.92 0 011.07-.37 1.83 1.83 0 01.9.26l-.53.85a1.4 1.4 0 00-.53-.13 1.46 1.46 0 00-1 .41 2.6 2.6 0 00-.71 1.29 12.51 12.51 0 00-.19 2.7v2.66h-1zM218.35 8.47l.85.44a4.8 4.8 0 01-1 1.33 3.88 3.88 0 01-1.2.76 4.16 4.16 0 01-1.55.27 3.74 3.74 0 01-3-1.26 4.24 4.24 0 01-1.08-2.84 4.19 4.19 0 01.92-2.66A3.74 3.74 0 01215.4 3a3.86 3.86 0 013.2 1.52 4.26 4.26 0 01.86 2.68h-7.05a3.18 3.18 0 00.87 2.23 2.76 2.76 0 002.09.88 3.35 3.35 0 001.16-.21 3 3 0 001-.55 4.65 4.65 0 00.82-1.08zm0-2.12a3.35 3.35 0 00-.59-1.29 2.6 2.6 0 00-1-.77 3 3 0 00-1.33-.3 2.88 2.88 0 00-2 .74 3.33 3.33 0 00-.92 1.62zM225.93 4.08l-.64.67A2.35 2.35 0 00223.7 4a1.24 1.24 0 00-.84.32 1 1 0 00-.35.76 1.15 1.15 0 00.29.73 4.25 4.25 0 001.21.83 4.55 4.55 0 011.53 1.12 2 2 0 01.4 1.23 2.23 2.23 0 01-.68 1.64 2.34 2.34 0 01-1.69.67 2.92 2.92 0 01-1.3-.3 2.8 2.8 0 01-1-.81l.63-.72a2.23 2.23 0 001.64.87 1.49 1.49 0 001-.39A1.2 1.2 0 00225 9a1.19 1.19 0 00-.28-.78 4.68 4.68 0 00-1.27-.83A4.1 4.1 0 01222 6.32a2 2 0 01-.39-1.22 2 2 0 01.61-1.48 2.1 2.1 0 011.53-.62 3.19 3.19 0 012.18 1.08zM235 8.47l.85.44a4.8 4.8 0 01-1 1.33 3.88 3.88 0 01-1.24.76 4.16 4.16 0 01-1.55.27 3.74 3.74 0 01-3-1.26A4.24 4.24 0 01228 7.17a4.19 4.19 0 01.92-2.66A3.74 3.74 0 01232.05 3a3.86 3.86 0 013.2 1.52 4.26 4.26 0 01.86 2.68h-7.05a3.18 3.18 0 00.87 2.23 2.76 2.76 0 002.09.88 3.35 3.35 0 001.16-.21 3 3 0 001-.55 4.65 4.65 0 00.82-1.08zm0-2.12a3.35 3.35 0 00-.59-1.29 2.6 2.6 0 00-1-.77 3 3 0 00-1.33-.3 2.88 2.88 0 00-2 .74 3.33 3.33 0 00-.92 1.62zM238.71 3.23h1v1.4a4.06 4.06 0 011.34-1.2 3.25 3.25 0 011.6-.4 2.79 2.79 0 011.56.44 2.64 2.64 0 011 1.21 6.23 6.23 0 01.34 2.32v4h-1V7.33a9.64 9.64 0 00-.11-1.81 2 2 0 00-.68-1.17 2 2 0 00-1.29-.4 2.51 2.51 0 00-1.64.61 2.87 2.87 0 00-1 1.5 11 11 0 00-.14 2.13v2.88h-1zM249 .32h1v2.91h1.6v.87H250v7h-1v-7h-1.38v-.87H249zM257.9 4.08l-.64.67a2.35 2.35 0 00-1.59-.75 1.24 1.24 0 00-.84.32 1 1 0 00-.35.76 1.15 1.15 0 00.29.73 4.25 4.25 0 001.21.83 4.45 4.45 0 011.53 1.12 2 2 0 01.4 1.23 2.19 2.19 0 01-.68 1.64 2.32 2.32 0 01-1.69.67 3 3 0 01-1.3-.3 2.8 2.8 0 01-1-.81l.64-.72a2.19 2.19 0 001.63.87 1.49 1.49 0 001-.39A1.2 1.2 0 00257 9a1.19 1.19 0 00-.28-.78 4.68 4.68 0 00-1.27-.83A4.1 4.1 0 01254 6.32a2 2 0 01-.39-1.22 2 2 0 01.61-1.48 2.11 2.11 0 011.51-.62 3.19 3.19 0 012.17 1.08zM1.14 68.64h7.49l5.78 25.54 7.14-25.54h6.33l7.25 25.54 5.72-25.54h7.49l-9 40H32l-7.34-25.86-7.24 25.86h-7.23zM83.85 96H60a7.93 7.93 0 002.76 5 8.67 8.67 0 005.72 1.86 9.91 9.91 0 007.16-2.86l6.25 2.94a14.79 14.79 0 01-5.6 4.9 17.54 17.54 0 01-7.75 1.59A15.31 15.31 0 0157.2 105a14.92 14.92 0 01-4.38-11 15.45 15.45 0 014.37-11.24 14.65 14.65 0 0110.94-4.46 15.22 15.22 0 0111.37 4.47q4.38 4.47 4.38 11.81zm-7.43-5.85a7.39 7.39 0 00-2.9-4 8.36 8.36 0 00-5-1.55 8.89 8.89 0 00-5.45 1.74 9.6 9.6 0 00-2.72 3.83zM124 68.64h7.72l15.38 40h-7.91l-3.13-8.24h-16.29l-3.26 8.24h-7.91zm3.9 10.61L122.57 93h10.7zM153.33 79.06h6.36v3.72a7.87 7.87 0 012.75-3.34 6.62 6.62 0 013.75-1.14 6.94 6.94 0 013 .76l-2.32 6.39a5 5 0 00-2.14-.65c-1.15 0-2.11.7-2.9 2.12s-1.18 4.18-1.18 8.32v13.44h-7.37zM203.68 96h-23.85a8 8 0 002.76 5 8.69 8.69 0 005.73 1.86 9.89 9.89 0 007.15-2.91l6.25 2.94a14.72 14.72 0 01-5.6 4.9 17.51 17.51 0 01-7.75 1.59A15.31 15.31 0 01177 105a14.92 14.92 0 01-4.38-11A15.45 15.45 0 01177 82.77a14.66 14.66 0 0111-4.47 15.22 15.22 0 0111.37 4.47q4.38 4.47 4.38 11.81zm-7.42-5.85a7.44 7.44 0 00-2.9-4 8.39 8.39 0 00-5-1.55 8.91 8.91 0 00-5.45 1.74 9.7 9.7 0 00-2.72 3.83zM231.68 68.64H239L256.1 95V68.64h7.62v40h-7.33L239.3 82.4v26.24h-7.62zM288.2 78.3a15.65 15.65 0 017.88 2.09 15.32 15.32 0 017.81 13.43 15.45 15.45 0 01-2.08 7.83 14.93 14.93 0 01-5.67 5.7 15.63 15.63 0 01-7.91 2.05 14.74 14.74 0 01-10.86-4.52 15.69 15.69 0 01.63-22.56 14.86 14.86 0 0110.2-4.02zm.13 7a7.64 7.64 0 00-5.76 2.4 8.54 8.54 0 00-2.31 6.16 8.7 8.7 0 002.28 6.26 7.6 7.6 0 005.76 2.39 7.7 7.7 0 005.8-2.42 8.67 8.67 0 002.32-6.23 8.58 8.58 0 00-2.28-6.19 7.7 7.7 0 00-5.81-2.38zM307.68 79.06H315l5.95 16.83 6.4-16.83h4.44L338 95.7l6-16.64h7.31l-10.79 29.58h-4.72l-6.31-16.86-6.49 16.86h-4.65z"/></svg>