<svg xmlns="http://www.w3.org/2000/svg" width="492" height="110.5" viewBox="0 0 492 110.5"><defs><style>.a{fill:#ea6d8d}.b{fill:#f29859}.c{fill:#fcd006}</style></defs><path class="a" d="M140 23.36a.67.67 0 01-.47-.19.65.65 0 01-.18-.47c0-.4.22-8 4-10.93v-3.4a4.82 4.82 0 00-2.74 2.7.67.67 0 01-.73.42.65.65 0 01-.54-.64V5.46a.6.6 0 01.19-.46.65.65 0 01.46-.2h4a.64.64 0 01.46.19.66.66 0 01.19.46V6.6a10.66 10.66 0 012.06-.2 8.5 8.5 0 015.73 1.91 7.72 7.72 0 012.41 6v8.34a.66.66 0 01-.65.66h-4a.64.64 0 01-.46-.19.63.63 0 01-.2-.46V16c0-2.28-.2-4-2.92-4a4 4 0 00-2 .49v10.22a.66.66 0 01-.65.65zm3.34-9.77c-2 2.39-2.54 6.8-2.66 8.47h2.67zm3.25-2.89c4.23 0 4.22 3.48 4.21 5.34v6h2.71v-7.69a6.38 6.38 0 00-2-5.06 7.2 7.2 0 00-4.87-1.59 7.35 7.35 0 00-2.07.24V11a5.46 5.46 0 012.04-.3zm-6-4.59v2.53A7.12 7.12 0 01143.35 7v-.9zM167.37 23.78a7.91 7.91 0 01-5.8-2.56 9.38 9.38 0 01-2.47-6.48c0-5.48 5.23-9.11 8.69-9.12a13.41 13.41 0 014 .53v-.7A.64.64 0 01172 5a.62.62 0 01.46-.19h3.82a.65.65 0 01.65.65v5.3a.65.65 0 01-.47.63.67.67 0 01-.74-.29 8.68 8.68 0 00-2.62-2.88v3.48l.25.24c2.23 2.15 3.36 5.78 3.37 10.78a.65.65 0 01-.65.65h-3.79a.65.65 0 01-.65-.65v-.28a7 7 0 01-4.29 1.36zm.44-16.86a8.15 8.15 0 00-7.39 7.81 8.11 8.11 0 002.12 5.6 6.61 6.61 0 004.85 2.15 6 6 0 004.48-1.93.66.66 0 011.13.45v1h2.48c-.09-3.72-.88-6.61-2.31-8.47V15c0 3-1.93 4.89-5 4.89a4.59 4.59 0 01-5-4.85 5.14 5.14 0 014.93-5.1 7.36 7.36 0 013.77.87V7.53a11.3 11.3 0 00-4.06-.61zm.51 4.27h-.21a3.88 3.88 0 00-3.67 3.8 3.31 3.31 0 003.65 3.55c1.12 0 3.74-.35 3.74-3.59V12.3a5.94 5.94 0 00-3.51-1.11zm4.81-4.51a8.28 8.28 0 012.53 2V6.09h-2.52zM188.18 23.78a7.42 7.42 0 01-6.11-3 .64.64 0 010-.83l2.47-2.72a.56.56 0 01.49-.21.65.65 0 01.48.23 4.44 4.44 0 002.85 1.63 1.57 1.57 0 001.56-1c.2-.73-.39-1.63-1.59-2.5a6.38 6.38 0 01-2.48.13 4.35 4.35 0 01-3.62-4.63 4.94 4.94 0 011.79-3.74 6.64 6.64 0 014.3-1.53 7.13 7.13 0 015.78 2.91.65.65 0 01-.06.85l-2.46 2.5a.63.63 0 01-.47.19.68.68 0 01-.46-.19 2.92 2.92 0 00-3-1 1.18 1.18 0 00-.86 1c-.07.63.49 1.35 1.52 2l.24.15a5 5 0 013.93.38 3.92 3.92 0 012 3.72c0 3.33-2.62 5.65-6.39 5.66zm-4.74-3.37a6.11 6.11 0 004.74 2.07c3.05 0 5.09-1.75 5.09-4.36a2.63 2.63 0 00-1.38-2.6 3 3 0 00-1.87-.41 3.14 3.14 0 011.17 3.15 2.85 2.85 0 01-2.81 1.94 5.29 5.29 0 01-3.33-1.57zm2.67-6.15a3.12 3.12 0 00.68.05 3 3 0 01-1.22-2.55 2.46 2.46 0 011.72-2 4 4 0 013.84.82l1.62-1.64A5.82 5.82 0 00188.36 7a5.27 5.27 0 00-3.45 1.21 3.63 3.63 0 00-1.34 2.75 3 3 0 002.55 3.35zM253.91 23.36h-6.85a2 2 0 01-1.44-.67 6.77 6.77 0 01-1.28-3.09h-2.74a1.19 1.19 0 01-.89-.41c-1.87-2-.9-14.76-.69-17.29a.65.65 0 01.65-.6h4a.65.65 0 01.65.7c-.28 3.52-.63 11.52.11 16.32h8.51a.65.65 0 01.65.65v3.76a.65.65 0 01-.68.63zm-8.27-3.76a5 5 0 00.94 2.2.63.63 0 00.48.26h6.2V19.6zm-4.37-17c-.57 7.13-.57 15 .41 15.72h2.42c-.8-5.24-.34-13.11-.16-15.72zM283.88 23.78c-.72 0-1.41-.73-2.05-1.94-.71 1.2-1.5 1.94-2.37 1.94-2.93 0-4.88-13.37-5.77-21.34a.59.59 0 01.16-.5.64.64 0 01.48-.22h3.39a.65.65 0 01.64.55 115.87 115.87 0 003.51 16.31 91.93 91.93 0 003.31-16.29.66.66 0 01.65-.57h3.45a.65.65 0 01.65.72c-.73 6.42-2.79 21.34-6.05 21.34zm-4.4-1.3zm3-2c.51 1.3 1 2 1.35 2 1.28 0 3.43-9 4.67-19.46h-2.1c-.49 3.92-1.78 12.63-3.87 17.42zM275.06 3c1.2 10.25 3.19 19.07 4.41 19.46.54 0 1.12-.77 1.7-2.07-1.86-4.6-3.3-12.77-4-17.39zM306.37 23.36H295a.65.65 0 01-.65-.65v-5.57a3 3 0 011.13-2.41 6.1 6.1 0 012.83-1.14v-3a6.47 6.47 0 01-2.8-1.21 3.2 3.2 0 01-1.16-2.53V2a.65.65 0 01.65-.7h11.33a.65.65 0 01.67.7v3.83a.65.65 0 01-.65.65h-6.72v3a26.47 26.47 0 006.61-.21.66.66 0 01.53.14.66.66 0 01.23.5v4.57a.67.67 0 01-.24.5.63.63 0 01-.53.13 27.86 27.86 0 00-6.6-.42v3.47h6.72a.65.65 0 01.65.65v3.87a.65.65 0 01-.63.68zm-10.68-1.3h10v-2.57H299a.65.65 0 01-.65-.65V14.9a4.6 4.6 0 00-2 .83 1.71 1.71 0 00-.66 1.41zm5.49-8.69a31 31 0 014.54.37v-3.05a27.89 27.89 0 01-6.07.13v2.6c.51-.04 1.02-.05 1.53-.05zM295.69 2.6v4.27a1.88 1.88 0 00.71 1.53 4.63 4.63 0 002 .88V5.83a.65.65 0 01.65-.65h6.72V2.6zM375.37 23.78a5.64 5.64 0 01-4.49-2.09c-1.71-2-2.06-4.12-2.06-6.83v-13a.65.65 0 01.65-.65h4a.65.65 0 01.65.65v14.07c0 2.23.72 3.78 2.15 4.59a4.58 4.58 0 001.48.52c1.12-1.83 1.2-4.85 1.2-5.66V1.88a.65.65 0 01.65-.65h4a.65.65 0 01.65.65v13.21c0 3.45-.82 5.69-2.46 6.66a6.38 6.38 0 01-3.38.67 3.71 3.71 0 01-2.95 1.36zm0-.65zm-5.26-20.6v12.33c0 2.48.29 4.25 1.76 6a4.32 4.32 0 003.49 1.63 2.38 2.38 0 001.29-.36 5.2 5.2 0 01-1.09-.47c-1.28-.73-2.8-2.31-2.8-5.72V2.53zm10.09 0v12.85a14.56 14.56 0 01-1.06 5.74 4.63 4.63 0 001.9-.49c1.21-.72 1.82-2.58 1.82-5.54V2.53zM445.72 23.78a6.89 6.89 0 01-5.83-2.65c-1.54-2-2.16-4.5-2.16-8.67 0-4.41.7-7.24 2.28-9.17 1-1.19 3-3.12 5.72-2.6A3.52 3.52 0 01447.84 2a4.5 4.5 0 01.45.06c3.06.65 5.28 5 5.28 10.22 0 7.62-2.64 11.5-7.85 11.5zm-.89-21.87a5.31 5.31 0 00-3.83 2.2c-1.38 1.69-2 4.26-2 8.35 0 3.85.55 6.13 1.89 7.87a5.6 5.6 0 004.8 2.15c2.81 0 6.55-1.06 6.55-10.22 0-4.48-1.71-7.71-3.56-8.68.85 2.23 1 8.72 1 8.72.07 3.34-.49 5.65-1.68 6.87a3.1 3.1 0 01-2.3 1c-4 0-4-5.72-4-7.59a14.46 14.46 0 011.12-6.46c1-2.36 2.28-3.41 3.35-3.84a2 2 0 00-.71-.28 3.66 3.66 0 00-.63-.09zm2.32 1.4c-1.16.22-2.27 1.37-3.12 3.3a13.24 13.24 0 00-1 5.94c0 6.29 2 6.29 2.7 6.29a1.81 1.81 0 001.37-.58c.64-.65 1.39-2.22 1.31-5.93-.01 0-.16-7.08-1.26-9.02zm-3.72 3zM333.87 23.36h-4a.65.65 0 01-.65-.65V11.23a6.23 6.23 0 011.47-4.38 6 6 0 00-2.2-.37h-5.08a.65.65 0 01-.65-.65V2a.65.65 0 01.65-.65h17a.65.65 0 01.65.65v3.83a.65.65 0 01-.65.65h-5.21a6 6 0 00-2.2.37 6.19 6.19 0 011.48 4.38v11.48a.65.65 0 01-.65.65zm-3.31-1.3h2.66V11.23a4.67 4.67 0 00-1.33-3.67 4.7 4.7 0 00-1.32 3.67zM324.1 5.18h4.43a6.75 6.75 0 013.35.77 6.77 6.77 0 013.35-.77h4.56V2.6H324.1zM353.25 23.78a11.08 11.08 0 01-11.14-11.26 11.22 11.22 0 0111.11-11.29c.32 0 1.3.08 1.3.08A5.58 5.58 0 01358.74 4a10.52 10.52 0 01.88 1.59 8.53 8.53 0 012.58 1.56 7.16 7.16 0 012.39 5.38 11.19 11.19 0 01-11.34 11.25zm0-21.25a9.9 9.9 0 00-9.8 10 9.79 9.79 0 009.83 10 9.91 9.91 0 0010-10 5.87 5.87 0 00-2-4.41 6.75 6.75 0 00-1.09-.79 15 15 0 01.43 7.29 7 7 0 01-7.51 5.38c-5.17-.34-7-4.29-7-7.57a8 8 0 017-7.55 15.69 15.69 0 014.81.17l-.23-.36a4.32 4.32 0 00-3.26-2.08s-.93-.08-1.21-.08zM355 6.08c-.58 0-1.19 0-1.82.09a6.71 6.71 0 00-5.82 6.26c0 2.85 1.52 6 5.8 6.27 1.78.11 5-.3 6.22-4.5a14.45 14.45 0 00-.78-7.62 12 12 0 00-3.6-.5zm-1.88-.55zM268 23.36h-8.9a.65.65 0 01-.65-.65v-3.84a.65.65 0 01.65-.65h1.82v-7.95a5.33 5.33 0 011.22-3.8h-3.04a.65.65 0 01-.65-.65V2a.65.65 0 01.65-.65h8.9a.65.65 0 01.65.65v3.79a.65.65 0 01-.65.65h-2.47a4.24 4.24 0 00-.51 0 5.48 5.48 0 011.16 3.8v8H268a.65.65 0 01.65.65v3.84a.65.65 0 01-.65.63zm-8.25-1.3h7.6v-2.54h-1.82a.65.65 0 01-.65-.65v-8.6c0-1.87-.54-2.85-1.28-3.34-.92.59-1.38 1.7-1.38 3.34v8.6a.65.65 0 01-.65.65h-1.87zm0-16.92h1.82a5.53 5.53 0 012 .35 5.24 5.24 0 011.93-.35h1.82V2.6h-7.6zM11.31 23.36H2a.65.65 0 01-.65-.65v-4a.65.65 0 01.65-.65h2V9.75a5.52 5.52 0 011.3-4H2a.65.65 0 01-.65-.65v-4A.65.65 0 012 .44h9.27a.65.65 0 01.65.65v4a.65.65 0 01-.65.65H8.74a5.54 5.54 0 00-.59 0 5.66 5.66 0 011.24 4v8.31h1.92a.65.65 0 01.65.65v4a.65.65 0 01-.65.66zm-8.62-1.3h8v-2.7H8.74a.65.65 0 01-.65-.65v-9c0-1.77-.44-2.91-1.37-3.51-.97.66-1.46 1.8-1.46 3.55v9a.65.65 0 01-.65.65H2.69zm0-17.62h1.92a5.72 5.72 0 012.11.36 5.56 5.56 0 012-.36h1.92v-2.7h-8zM64.69 23.36h-3.9a.65.65 0 01-.65-.65V17.6c0-2.7 1.06-4 1.94-4.57a4.19 4.19 0 012-.68V9.87a6.35 6.35 0 00-.76.13 2.84 2.84 0 00-1.7 1.05c-.08.15-.34.65-.76.66a.64.64 0 01-.68-.61V6.72a.65.65 0 01.65-.65h3.9a.65.65 0 01.65.65v1.84a6.15 6.15 0 015.08 2.94.64.64 0 010 .45l-.71 2.82c-.34 1-.94 1-1.5.54a7.45 7.45 0 00-2-1.33 3.73 3.73 0 00-1-.27v9a.65.65 0 01-.56.65zm-3.25-1.3H64v-8.4a2.85 2.85 0 00-1.23.44c-.91.61-1.37 1.79-1.37 3.5zm3.9-9.67a6.28 6.28 0 011.45.38 4.79 4.79 0 011.84 1.35l.52-2.22a5 5 0 00-3.81-2zm-3.9-5v2A4.83 4.83 0 0163 8.74a6.28 6.28 0 011-.17v-1.2zM79.44 23.36H75.3a.65.65 0 01-.65-.65V9.85a3.93 3.93 0 011.72-2.92 4.21 4.21 0 01-1.72-3.12c0-1.88 1.07-3.09 2.72-3.09s2.72 1.21 2.72 3.09a4.18 4.18 0 01-1.72 3.12 3.91 3.91 0 011.72 2.92v12.86a.65.65 0 01-.65.65zM76 22.06h2.84V9.85c0-.78-.63-1.4-1.42-2.07-.84.67-1.42 1.29-1.42 2.07zM77.37 2C76.13 2 76 3.14 76 3.81a3.23 3.23 0 001.42 2.27 3.23 3.23 0 001.42-2.27C78.79 3.14 78.61 2 77.37 2zM46.33 23.78a8.91 8.91 0 01-9-9 9 9 0 018.97-9.14 5.27 5.27 0 014.61 2.2 6.45 6.45 0 011 2.7 6.1 6.1 0 011.31 1A6.45 6.45 0 0155 16.33c0 4.25-3.72 7.45-8.67 7.45zM46.3 7a7.71 7.71 0 00-7.63 7.78 7.62 7.62 0 007.66 7.75c3.58 0 7.39-2.16 7.39-6.15a5.19 5.19 0 00-1.43-3.89l-.3-.27a12.86 12.86 0 01-.87 4.41A5 5 0 0146.36 20c-2.92 0-5-2.18-5-5.29a5 5 0 014.94-5.26 12.73 12.73 0 014.09.48 4.25 4.25 0 00-.6-1.35A3.94 3.94 0 0046.3 7zm.07 3.79a3.71 3.71 0 00-3.67 4c0 2.38 1.47 4 3.66 4a3.77 3.77 0 003.55-2.59 11 11 0 00.76-4.7 10.82 10.82 0 00-4.3-.65zm0-.65zM128.26 23.36a.68.68 0 01-.46-.19.66.66 0 01-.19-.46V9.85a3.93 3.93 0 011.72-2.92 4.19 4.19 0 01-1.73-3.12c0-1.88 1.07-3.09 2.72-3.1C132 .71 133 1.93 133 3.8a4.21 4.21 0 01-1.72 3.12 3.92 3.92 0 011.73 2.92v12.87a.66.66 0 01-.65.65h-4.15zm2.06-15.58c-.79.67-1.42 1.29-1.42 2.07v12.21h2.85V9.84c0-.77-.64-1.39-1.43-2.06zm0-5.76c-1.23 0-1.42 1.12-1.42 1.79a3.26 3.26 0 001.43 2.26 3.21 3.21 0 001.42-2.27c-.01-.66-.2-1.8-1.43-1.8zM484.15 23.78a6.88 6.88 0 01-5.83-2.65c-1.54-2-2.16-4.5-2.16-8.67 0-4.41.7-7.24 2.28-9.17s3.72-2.95 5.72-2.57a3.57 3.57 0 012.34 1.6l.28.06c2.93.71 5.22 5.05 5.22 9.88 0 7.64-2.64 11.52-7.85 11.52zm-.9-21.85a5.28 5.28 0 00-3.8 2.18c-1.38 1.69-2 4.26-2 8.35 0 3.85.54 6.13 1.89 7.87a5.6 5.6 0 004.8 2.15c2.81 0 6.55-1.06 6.55-10.22 0-3.69-1.48-7.13-3.42-8.28.72 2.19.85 8.32.85 8.32.07 3.34-.49 5.65-1.68 6.87a3.12 3.12 0 01-2.3 1c-4 0-4-5.72-4-7.59 0-3.14.31-4.9 1.14-6.5 1.18-2.29 2.47-3.25 3.57-3.6a2 2 0 00-.95-.45 3.09 3.09 0 00-.65-.1zm-.81 4.72c-.61 1.18-1 2.58-1 5.9 0 6.29 2 6.29 2.7 6.29a1.83 1.83 0 001.37-.58c.64-.65 1.39-2.22 1.31-5.93 0 0-.15-6.75-1.11-8.74-1.17.13-2.31 1.18-3.28 3.06zM32.05 23.36h-4a.65.65 0 01-.65-.65v-6.66c0-2.28-.2-4-2.92-4.05a4.34 4.34 0 00-2 .5v10.21a.65.65 0 01-.65.65h-4a.68.68 0 01-.47-.19.65.65 0 01-.18-.47c0-.4.23-8 4-10.92v-3.4a4.8 4.8 0 00-2.74 2.69.65.65 0 01-.72.42.65.65 0 01-.54-.64V5.46a.66.66 0 01.65-.66h4a.66.66 0 01.65.66v1.15a10.66 10.66 0 012.06-.2c5 0 8.15 3.05 8.15 8v8.35a.65.65 0 01-.64.6zm-3.35-1.3h2.7v-7.7c0-6-4.79-6.65-6.85-6.65a9.16 9.16 0 00-2.06.23v3.11a5.54 5.54 0 012-.35c4.23 0 4.21 3.5 4.2 5.35zm-10.17 0h2.66v-8.47c-2.03 2.41-2.54 6.8-2.66 8.47zm0-15.95v2.53A7.25 7.25 0 0121.19 7v-.89z"/><path class="b" d="M201.44 109.81h-11.81a1 1 0 01-1-.83c-.89-4.25-1.8-8.25-2.7-12h-22.5c-1.32 0-3.71 5.6-5.11 12a1 1 0 01-1 .82H146.2a1 1 0 01-.85-.45 1 1 0 01-.12-1c4.67-12.72 20.06-54.33 21.67-55.95 1.88-1.87 11.58-2.25 13.84 0 1.22 1.23 15.49 29.48 13.48 34.33a1.73 1.73 0 01-1.65 1.13h-6.9c.65 2.39 1.26 4.76 1.82 7h6.38c5.54 0 8.29 12.23 8.59 13.62a1.08 1.08 0 01-.21.87 1 1 0 01-.81.46zm-11-2.08h9.65c-1.03-4.16-3.49-10.73-6.22-10.73H188c1.22 5 2.11 9.05 2.47 10.73zm-42.78 0h8.78c.91-3.86 3.39-12.8 7-12.8h22c-.62-2.46-1.23-4.8-1.83-7h-15.85c-.85 0-2.84-.39-2.91-4-.1-5.93 5.46-20.68 9.3-20.81h.09c2.14 0 5.31 2.73 10.9 22.72h7.26c1-3.48-11-29.68-13.1-31.91-1.4-1.39-9.75-1.13-10.88 0-1.33 1.77-12.92 32.62-20.73 53.8zm26.54-42.51c-1.71.4-7.93 13.45-7.25 19.36.16 1.32.6 1.32.79 1.32H183c-3.76-13.16-7.11-20.68-8.8-20.68zM363.67 109.81c-1.85 0-3.9-1.29-6.05-3.47a8.54 8.54 0 01-1.42 2.14 3.88 3.88 0 01-2.85 1.33c-10.41 0-18.38-19.73-22-30.48v29.44a1 1 0 01-1 1h-10.12a1 1 0 01-1-1V53.2a1 1 0 011-1h11.13a1 1 0 011 .67c.06.14 5.35 14 11.93 27.71 5.42 11.28 9.55 18 12.64 21.91 3.35-11.52 3.08-38.23 2.59-49.2a1 1 0 01.29-.77 1 1 0 01.75-.32h10.6a1 1 0 011 1c.06 1.95 1.43 47.9-5.82 55.39a3.7 3.7 0 01-2.67 1.22zm-5.21-5.5c2.5 2.74 4.17 3.42 5.21 3.42a1.68 1.68 0 001.18-.61c5.38-5.56 5.64-39.11 5.27-52.88h-8.51c.12 3.21.42 13.07.12 23.45-.37 12.53-1.46 21.45-3.27 26.62zm-28.11-33a1 1 0 011 .78c2.62 9.92 11.69 35.68 22 35.68a1.91 1.91 0 001.35-.69 8.1 8.1 0 001.42-2.35c-10.6-12.48-23-43.91-25.48-50.45h-9.37v53.49h8V72.32a1 1 0 01.91-1z"/><path class="c" d="M403.05 110.5a22.28 22.28 0 01-22.4-22.63A22.54 22.54 0 01403 65.16c5.25 0 9.22 1.86 11.79 5.52a16.6 16.6 0 012.41 5.48 18.28 18.28 0 011.64 1.26c3.83 3.37 5.95 8.54 5.95 14.55-.03 10.57-9.36 18.53-21.74 18.53zM403 67.24a20.46 20.46 0 00-20.24 20.63 20.22 20.22 0 0020.32 20.55c9.52 0 19.63-5.76 19.63-16.45 0-5.26-1.77-9.77-5-12.74a30.31 30.31 0 01-1.59 13c-1.41 3.88-6.06 9.35-13.11 8.47-7.5-.92-12-5.76-12-12.95a14.86 14.86 0 0112.24-14.28 21.63 21.63 0 0111.3 1.25 13 13 0 00-1.51-2.88c-2.15-3.04-5.54-4.6-10.04-4.6zm.55 8.33c-4.93.65-10.42 5.82-10.42 12.22 0 6.13 3.7 10.09 10.16 10.89 5.83.71 9.71-3.87 10.89-7.12a28.46 28.46 0 001.18-14.09c-3.17-1.84-7.19-2.5-11.81-1.9zM222.26 109.81h-10a1 1 0 01-1-1V95.64c0-5.36 1.58-9.14 4.69-11.24a10.35 10.35 0 015.32-1.67v-7.64a14.85 14.85 0 00-2.72.41c-2.64.64-4.42 1.91-5 3.5-.14.38-.25 1.23-1.29 1.23a1 1 0 01-1-1V67.67a1 1 0 011-1h10a1 1 0 011 1V73c5.28.25 10.68 2.61 13.12 7.27a1.12 1.12 0 01.09.72l-2.13 8.15a1.42 1.42 0 01-1.13 1.15 1.59 1.59 0 01-1.69-.79 9.68 9.68 0 00-4.92-3.74 13.51 13.51 0 00-3.34-.87v23.89a1 1 0 01-1 1.03zm-9-2.08h7.93V84.81a8.08 8.08 0 00-4.15 1.32c-2.51 1.69-3.78 4.89-3.78 9.51zm10-24.94a15.55 15.55 0 014.12 1 11.53 11.53 0 015.27 4.31l1.7-7.24c-2.11-3.66-6.66-5.56-11.09-5.81zm-10-14.08v7.06a11 11 0 014.71-2.3 17.72 17.72 0 013.22-.47v-4.29zM98.9 110.5c-12.87 0-21.41-9.72-21.41-16.16a4.55 4.55 0 011.14-3.21A4.42 4.42 0 0182 89.84h3.31a15.51 15.51 0 01.31-6.12h-3a5 5 0 01-3.38-1.06 3.73 3.73 0 01-1.2-2.89c0-5.13 8.52-14.61 20.67-14.61 13.44 0 22.13 8.87 22.13 22.59 0 3.45-2.5 4.17-4.6 4.17H87.83c1.37 5.42 6.53 7.37 11.07 7.37a12.33 12.33 0 009.49-3.73 1 1 0 011.17-.2l8.67 4.11a1 1 0 01.56.67 1 1 0 01-.15.86c-4.64 6.57-10.71 9.5-19.74 9.5zM82 91.92a2.49 2.49 0 00-1.87.64 2.61 2.61 0 00-.57 1.78c0 5 7.34 14.08 19.33 14.08 7.8 0 13.19-2.36 17.3-7.62l-6.89-3.25a14.34 14.34 0 01-10.41 3.82c-6.88 0-12-3.69-13.21-9.45zm5.41-2.08h28.86c2.51 0 2.51-1.16 2.51-2.09 0-12.65-7.68-20.51-20-20.51A21.61 21.61 0 0085.3 72c-3.55 2.86-5.14 6-5.14 7.75 0 .51 0 1.87 2.5 1.87h3.73a13.24 13.24 0 011.3-2.2 16.37 16.37 0 0111.11-6.25 12.22 12.22 0 0111.44 4.94c1.11 1.64 1.41 3.29.83 4.39a2.38 2.38 0 01-2.26 1.22h-21a13.44 13.44 0 00-.39 6.12zm1.32-8.2h20.07c.11 0 .36 0 .42-.12.15-.27 0-1.15-.71-2.25a10.14 10.14 0 00-9.51-4 14.4 14.4 0 00-9.64 5.42 11.59 11.59 0 00-.62.95z"/><path class="b" d="M49.65 110.5c-6 0-7.79-6-9.06-10.44l-5.21-22.74L30.19 100c-1.28 4.46-3 10.5-9.08 10.5a1 1 0 01-1-.87l-1.49-9.17-2.66 9.24a1 1 0 01-1.2.73c-5.66-1.11-6.18-4.59-6.9-9.39L0 53.75a1 1 0 01.24-.84 1 1 0 01.76-.37h11a1 1 0 011 .87L19.17 91 30 53.29a1.05 1.05 0 011-.75h8.76a1 1 0 011 .75L51.6 91l6.07-37.54a1.05 1.05 0 011-.87h11a1 1 0 011 1.21L62.93 101c-.72 4.8-1.24 8.28-6.9 9.39a1 1 0 01-1.2-.73l-2.66-9.24-1.49 9.17a1 1 0 01-1.03.91zM35.38 71.62a1 1 0 011 .8l6.2 27.12c1.34 4.64 2.68 8.3 6.18 8.82l2-12.59L39 54.62h-7.21L20 95.77l2 12.59c3.5-.52 4.84-4.19 6.19-8.88l6.19-27.06a1 1 0 011-.8zm-33.11-17l7.63 46.11c.64 4.32 1 6.47 4.32 7.44l3.6-12.53-6.64-41zM53 95.64l3.6 12.53c3.35-1 3.67-3.12 4.32-7.44l7.58-46.11h-8.91z"/><path class="c" d="M472.51 110.5c-5.15 0-6.62-5.08-7.69-8.79L460.68 86l-4.14 15.67c-1.07 3.73-2.54 8.81-7.69 8.81a1 1 0 01-1-.86l-1.1-6.36-2 6.45a1 1 0 01-1.19.71c-4.82-1-5.26-3.88-5.87-7.94l-6.48-36a1 1 0 011-1.23h9.14a1.05 1.05 0 011 .87l4.91 28.25L456.05 66a1.05 1.05 0 011-.74h7.26a1.05 1.05 0 011 .74l8.77 28.37L479 66.15a1 1 0 011-.87h9.15a1.06 1.06 0 01.8.38 1 1 0 01.22.85l-6.48 36c-.61 4.06-1.05 7-5.87 7.94a1 1 0 01-1.19-.71l-2-6.45-1.1 6.36a1 1 0 01-1.02.85zm-24.44-11.59l1.64 9.44c2.43-.43 3.55-2.77 4.82-7.21l5.14-19.46a1 1 0 012 0l5.14 19.48c1.27 4.42 2.38 6.76 4.82 7.19l1.64-9.44-9.75-31.55h-5.72zm-14.62-31.55l6.27 34.83c.53 3.54.78 5.2 3.3 6l2.91-9.4-5.46-31.41zm42 31.41l2.9 9.4c2.53-.78 2.78-2.44 3.31-6l6.27-34.83h-7z"/><path class="a" d="M96.51 23.36a.66.66 0 01-.5-.23.63.63 0 01-.14-.53l3-18.26c.28-1.89.5-3.37 2.86-3.84a.64.64 0 01.75.45l.72 2.51.4-2.46a.65.65 0 01.64-.55c2.53 0 3.23 2.44 3.74 4.22l1.78 7.73 1.76-7.7c.48-1.81 1.22-4.25 3.74-4.25a.66.66 0 01.65.55l.4 2.44.69-2.5a.65.65 0 01.75-.46c2.36.46 2.59 2 2.87 3.83l3 18.26a.63.63 0 01-.14.53.64.64 0 01-.5.23h-4.26a.65.65 0 01-.64-.55L116 9.39l-3.87 13.48a.64.64 0 01-.62.47h-3.39a.64.64 0 01-.62-.47L103.57 9.4l-2.16 13.41a.65.65 0 01-.64.55zm4.9-21.43c-.88.33-1 1-1.26 2.6l-2.88 17.53h2.94l2.51-15.59zm2.64 4.46l4.52 15.66H111l4.49-15.66-.75-4.56c-.93.28-1.4 1.32-1.94 3.21l-2.4 10.43a.65.65 0 01-.63.51.65.65 0 01-.64-.51L106.72 5c-.53-1.85-1-2.9-1.94-3.16zm12.75.06L119.34 22h2.93l-2.91-17.49c-.25-1.61-.39-2.27-1.26-2.6zM403 23.36h-4.21a.66.66 0 01-.54-.28c-.91-1.32-2.56-3.75-3.72-5.74v5.37a.65.65 0 01-.65.65h-3.87a.65.65 0 01-.65-.65V15c0-2.2 1.33-3 2.47-3a2.9 2.9 0 011.4.37V11c-1.68-.17-3.61-.73-3.76-2.37-.1-1.13-.11-6-.11-6.18a.66.66 0 01.19-.46.64.64 0 01.46-.19h4.71c2.6 0 4.64.31 6.19 1.82a6.56 6.56 0 011.83 4.7c0 3-2.14 4.21-4.14 5.1h-.1a3.1 3.1 0 00-.51.27l5.53 8.6a.65.65 0 010 .66.66.66 0 01-.52.41zm-3.87-1.3h2.67l-4.8-7.6a1.33 1.33 0 01-.2-1.11 2 2 0 011.2-1.09h.09c2.19-1 3.37-1.88 3.37-3.91A5.23 5.23 0 00400 4.54c-1.24-1.21-2.94-1.45-5.28-1.45h-4.02c0 1.39 0 4.58.11 5.42.06.66 1.17 1 2.46 1.17V8.3c0-2 .36-3 2.42-3a3.13 3.13 0 013.31 3c0 .83-.32 2.74-3.31 2.74h-1.12v3.36c.07.73 2.43 4.47 4.6 7.66zm-8.47 0h2.57v-7.63a1 1 0 00-.41-.77 1.65 1.65 0 00-1-.36c-.75 0-1.17.6-1.17 1.68zm3.87-12.3h1.08c2.05 0 2.05-1 2.05-1.44a1.83 1.83 0 00-2-1.69c-1 0-1.12 0-1.12 1.71zM433.31 23.36h-14.2a1 1 0 01-.95-.7 2.28 2.28 0 01.49-2.34c.63-.63 6.1-6.52 6.15-6.58a20.25 20.25 0 004.35-5.95 14.42 14.42 0 001.09-2.88 6.08 6.08 0 00-2.4-.41 4.46 4.46 0 00-3.56 1.63 9.93 9.93 0 00-1.37 2.57.65.65 0 01-.62.43h-3.84a.69.69 0 01-.51-.24.68.68 0 01-.12-.55c0-.09 2-8.34 8.88-8.34a7.1 7.1 0 012.71.52 3.73 3.73 0 012.23 3.68 4.2 4.2 0 011.16 1.2 6.34 6.34 0 01.18 5.71 16 16 0 01-3.07 4.4l-1 1a28.25 28.25 0 00-2 2.18 34.18 34.18 0 006.37.16.75.75 0 01.48.18.67.67 0 01.2.47v3.25a.65.65 0 01-.65.61zm-14-1.3h13.33v-1.92c-2.51.1-6.14.1-6.94-.64a.9.9 0 01-.29-.62c0-.62.58-1.3 2.61-3.33l.94-1a14.71 14.71 0 002.81-4 5.09 5.09 0 00-.08-4.47 4.47 4.47 0 00-.32-.41 17.4 17.4 0 01-1.06 2.65 21.66 21.66 0 01-4.59 6.3c-.21.23-5.53 6-6.17 6.6a1 1 0 00-.22.84zm0-14.23h2.52a11.29 11.29 0 011.39-2.49 5.76 5.76 0 014.6-2.14 7.67 7.67 0 012.49.36 2.43 2.43 0 00-1.46-1.86 5.77 5.77 0 00-2.17-.4c-4.68 0-6.68 4.63-7.35 6.53zM472.29 23.36h-14.2a1 1 0 01-.95-.7 2.28 2.28 0 01.49-2.34c.63-.63 6.1-6.52 6.15-6.58a20.25 20.25 0 004.35-5.95 14.42 14.42 0 001.09-2.88 6.08 6.08 0 00-2.4-.41 4.46 4.46 0 00-3.56 1.63 9.93 9.93 0 00-1.37 2.57.65.65 0 01-.62.43h-3.84a.65.65 0 01-.63-.79c0-.09 2-8.34 8.88-8.34a7.1 7.1 0 012.71.52 3.73 3.73 0 012.23 3.68 4.2 4.2 0 011.16 1.2 6.34 6.34 0 01.18 5.71 16 16 0 01-3.07 4.4c-.28.29-.6.62-.94 1a28.52 28.52 0 00-2.06 2.19 34.18 34.18 0 006.37.16.75.75 0 01.48.18.67.67 0 01.2.47v3.25a.65.65 0 01-.65.6zm-14-1.3h13.33v-1.92c-2.5.1-6.14.1-6.94-.64a.9.9 0 01-.29-.62c0-.62.58-1.3 2.62-3.34l.93-.94a14.71 14.71 0 002.81-4 5.09 5.09 0 00-.08-4.47 3.22 3.22 0 00-.32-.41 17.4 17.4 0 01-1.06 2.65 21.66 21.66 0 01-4.59 6.3c-.21.23-5.53 6-6.17 6.6a1 1 0 00-.22.79zm0-14.23h2.52a11.29 11.29 0 011.39-2.49 5.76 5.76 0 014.6-2.14 7.67 7.67 0 012.49.36 2.43 2.43 0 00-1.46-1.86 5.77 5.77 0 00-2.17-.4c-4.66 0-6.66 4.63-7.35 6.53z"/><path class="c" d="M266.29 110.5c-12.87 0-21.41-9.72-21.41-16.16a4.55 4.55 0 011.12-3.21 4.42 4.42 0 013.38-1.29h3.31a15.51 15.51 0 01.31-6.12h-3c-2.87 0-4.58-1.47-4.58-4 0-2.8 2.32-6.48 5.92-9.37a23.59 23.59 0 0114.75-5.24c13.44 0 22.12 8.87 22.12 22.59 0 3.45-2.49 4.17-4.59 4.17h-28.4c1.37 5.42 6.53 7.37 11.07 7.37a12.33 12.33 0 009.49-3.73 1 1 0 011.17-.2l8.67 4.11a1 1 0 01.56.67 1 1 0 01-.15.86c-4.62 6.62-10.71 9.55-19.74 9.55zM249.4 91.92a2.49 2.49 0 00-1.87.64 2.61 2.61 0 00-.57 1.78c0 5 7.34 14.08 19.33 14.08 7.8 0 13.19-2.36 17.3-7.62l-6.89-3.25a14.34 14.34 0 01-10.41 3.82c-6.88 0-12-3.69-13.21-9.45zm5.41-2.08h28.86c2.51 0 2.51-1.16 2.51-2.09 0-12.65-7.68-20.51-20-20.51-11.38 0-18.59 8.81-18.59 12.53a1.67 1.67 0 00.5 1.33 3.1 3.1 0 002 .54h3.73a13.24 13.24 0 011.3-2.2 16.35 16.35 0 0111.11-6.27 12.21 12.21 0 0111.44 4.94c1.11 1.64 1.41 3.29.82 4.39a2.37 2.37 0 01-2.25 1.22h-21a13.44 13.44 0 00-.43 6.12zm1.32-8.2h20.07c.11 0 .36 0 .42-.12.14-.27 0-1.15-.71-2.25a10.17 10.17 0 00-9.51-4 14.4 14.4 0 00-9.64 5.42 11.59 11.59 0 00-.63.95z"/><path class="a" d="M207.91 23.78c-5.19 0-8.63-4-8.63-6.57a2.07 2.07 0 01.51-1.43 2 2 0 011.51-.58h1a6.35 6.35 0 01.08-1.91h-.85a1.78 1.78 0 01-2-1.79c0-2.35 3.58-6 8.34-6 5.41 0 8.91 3.56 8.91 9.09a1.79 1.79 0 01-2 1.87H203.9a4 4 0 004 2.4 4.57 4.57 0 003.55-1.39.64.64 0 01.73-.12l3.39 1.6a.67.67 0 01.26 1c-1.83 2.65-4.3 3.83-7.92 3.83zm-6.61-7.28a.72.72 0 00-.56.18.78.78 0 00-.16.53c0 1.58 2.5 5.27 7.33 5.27 2.89 0 4.85-.8 6.39-2.65l-2.3-1.08a5.86 5.86 0 01-4.12 1.45c-2.74 0-4.8-1.43-5.37-3.7zm2.33-1.3h11.09c.74 0 .74-.23.74-.57 0-4.81-2.92-7.79-7.61-7.79a8.2 8.2 0 00-5.11 1.82 4.52 4.52 0 00-1.93 2.84c0 .18 0 .49.74.49h1.31a5 5 0 01.46-.76 6.66 6.66 0 014.52-2.55 5 5 0 014.71 2 2 2 0 01.34 2 1.21 1.21 0 01-1.1.6h-8a5 5 0 00-.16 1.92zm.75-3.21h7.34a1.91 1.91 0 00-.48-.85A3.83 3.83 0 00208 10a5.4 5.4 0 00-3.62 2z"/></svg>