<svg xmlns="http://www.w3.org/2000/svg" width="899.26" height="1160.94" viewBox="0 0 899.26 1160.94"><path d="M549.21 1158.94c2.92 0 5.84 0 8.77-.11 69.9-1.36 143.13-16 212.79-88.57 20.93-21.81 40.94-49.19 58.43-82.57 27.43-52.35 47.26-119.12 58.14-187.08 35.26-220.44-28.58-384.41-110.67-469.68-44.92-46.66-91.36-87.08-134.6-139.07-50.75-61-99.92-126.56-159.65-158.72C422 .64 355.6-10 287.53 18.6 135.1 82.63-8.33 382.15 2.59 683.73 6.86 801.9 42 896.76 87 957.06c69 92.39 163.28 124.69 248.07 159.62a553.22 553.22 0 00214.14 42.26z" fill="none" stroke="#ea6d8d" stroke-linecap="round" stroke-linejoin="round" stroke-width="4"/></svg>