<svg xmlns="http://www.w3.org/2000/svg" width="659.75" height="763.62" viewBox="0 0 659.75 763.62"><path d="M273.27 3.58q-3.21-.29-6.42-.52c-51.23-3.78-105.33.76-158.74 42.88a221.89 221.89 0 00-45.53 49.3C40.76 127.13 24 168.82 13.81 211.87-19.33 351.52 22 461.4 79.26 521.81c31.34 33.05 64 62.18 93.93 98.55 35.14 42.7 69 88.19 111.62 112.88 43.14 25 91.43 36.25 142.22 22.36 113.73-31.09 228.68-214.47 230.7-409.47.79-76.41-21.79-139.86-52.75-181.71-47.44-64.1-115.42-91.2-176.34-119.35A466.09 466.09 0 00273.27 3.58z" fill="none" stroke="#fcd006" stroke-linecap="round" stroke-linejoin="round" stroke-width="4"/></svg>