<svg xmlns="http://www.w3.org/2000/svg" width="726.45" height="600.82" viewBox="0 0 726.45 600.82"><path d="M66.13 412.08c-1.39-1.61-2.76-3.24-4.13-4.87-32.72-39.07-61-84.45-61-147.49a191.56 191.56 0 019.89-60.22c10.86-32.87 31.94-66.42 57.84-95.43C152.73 10 258.18-10.29 336.34 6.18c42.77 9 83.41 21 127.82 27.24 52.12 7.37 105.55 12.33 148.75 34.43 43.67 22.34 80.23 55.43 99.63 102.7C756 276.4 687.38 457 544.24 553.06 488.15 590.7 428 603.42 379 599c-75.21-6.85-135-48-191.4-83A522.83 522.83 0 0166.13 412.08z" fill="none" stroke="#f29859" stroke-miterlimit="10" stroke-width="2"/></svg>