<svg xmlns="http://www.w3.org/2000/svg" width="536.78" height="1141.48" viewBox="0 0 536.78 1141.48"><path d="M298 1138.34c1.73-.19 3.46-.39 5.2-.63 41.46-5.53 85.69-24.39 131.27-100.51 13.7-22.88 27.18-51.21 39.53-85.35 19.37-53.52 35.1-120.89 45.6-188.91 34.06-220.61 6.06-379.33-37.44-458.95-23.8-43.57-48.88-80.86-71.37-129.81-26.4-57.45-51.59-119.48-85-147.78C292-2.21 253.27-8.78 211.26 23.63 117.19 96.22 14.37 401.69 2.8 700c-4.53 116.88 10.6 208.82 33.65 265.9 35.31 87.45 89.21 113.84 137.32 143.38 39.09 23.97 80.76 33.72 124.23 29.06z" fill="none" stroke="#fcd006" stroke-linecap="round" stroke-linejoin="round" stroke-width="4"/></svg>