<svg xmlns="http://www.w3.org/2000/svg" width="1117.23" height="815.24" viewBox="0 0 1117.23 815.24"><path d="M414.55 11.57q-5.43-.77-10.87-1.5C317-1.56 226.73-5 143.29 30.44 118.21 41.1 94.52 55.6 74.19 74.52c-31.87 29.66-53.72 70.22-64.4 113.17C-24.85 327 61.15 446.79 166.55 517.85c57.67 38.88 117 73.91 172.78 116 65.5 49.43 129.22 101.54 204.67 133.49 76.28 32.31 159.16 51.25 242.45 44.56 186.5-15 352.09-187.16 326.07-388.36-10.2-78.84-57.72-147.82-116.08-195.73C907 154.41 788.67 116.16 682 77.88a1360.64 1360.64 0 00-267.45-66.31z" fill="none" stroke="#f29859" stroke-linecap="round" stroke-linejoin="round" stroke-width="4"/></svg>